<svg width="512" height="512" viewBox="0 0 512 512" fill="none" xmlns="http://www.w3.org/2000/svg">
<path fill-rule="evenodd" clip-rule="evenodd" d="M294.523 126.052C290.69 129.085 287.992 133.324 286.867 138.081L273.177 196.013C261.172 246.811 288.402 298.52 336.685 317.538V440.26C336.685 443.76 335.663 447.184 333.742 450.111C331.822 453.037 329.089 455.339 325.878 456.733L305.917 465.397C302.453 466.9 299.505 469.383 297.433 472.54C295.362 475.698 294.258 479.391 294.258 483.167V492.127C294.258 502.826 302.931 511.499 313.631 511.499H408.163C418.862 511.499 427.536 502.826 427.536 492.127V483.168C427.536 475.45 422.955 468.47 415.876 465.397L395.915 456.733C392.704 455.339 389.971 453.037 388.051 450.111C386.131 447.184 385.108 443.76 385.108 440.26V317.538C433.392 298.52 460.62 246.81 448.616 196.013L434.926 138.081C433.801 133.323 431.104 129.085 427.27 126.052C423.436 123.019 418.691 121.369 413.803 121.369H356.609C351.403 121.369 347.182 125.589 347.182 130.795C347.182 136.001 351.403 140.221 356.609 140.221H413.803C414.445 140.221 415.069 140.438 415.573 140.837C416.077 141.236 416.431 141.793 416.579 142.418L429.654 197.747H292.139L305.214 142.418C305.362 141.792 305.717 141.236 306.221 140.837C306.724 140.438 307.348 140.221 307.991 140.221H321.881C327.087 140.221 331.307 136.001 331.307 130.795C331.307 125.589 327.087 121.369 321.881 121.369H307.991C303.102 121.369 298.357 123.019 294.523 126.052ZM313.243 482.759C313.304 482.739 313.365 482.716 313.424 482.691L333.385 474.026C339.967 471.169 345.57 466.451 349.506 460.452C353.441 454.453 355.538 447.435 355.538 440.26V319.161H366.255V440.26C366.255 447.434 368.352 454.453 372.288 460.453C376.223 466.452 381.827 471.17 388.409 474.027L408.37 482.691C408.56 482.773 408.683 482.961 408.683 483.168V492.127C408.683 492.414 408.45 492.646 408.163 492.646H313.631C313.343 492.646 313.111 492.414 313.111 492.127V483.168C313.111 482.952 313.138 482.84 313.153 482.794L313.16 482.791C313.179 482.782 313.205 482.771 313.243 482.759ZM289.282 216.6H432.511C434.016 252.869 412.298 286.956 377.397 300.308H344.397C309.495 286.956 287.776 252.868 289.282 216.6Z" fill="black"/>
<path fill-rule="evenodd" clip-rule="evenodd" d="M111.741 103.863V81.4684C111.544 81.2898 111.351 81.1061 111.162 80.9172C108.117 77.8724 106.406 73.7426 106.405 69.4365V52.2553C106.406 47.9492 108.697 43.2676 111.742 40.2228V18.6284C111.742 13.6879 113.704 8.94966 117.198 5.45614C120.691 1.96263 125.43 0 130.37 0H176.623C181.563 0 186.301 1.96263 189.795 5.45614C193.288 8.94964 195.251 13.6879 195.251 18.6284V40.2246C198.296 43.2693 200.499 47.6942 200.5 52L200.585 69.4354C200.5 74 198.748 77.999 195.829 80.9175C195.641 81.1059 195.448 81.2894 195.251 81.468V103.864C195.251 125.288 203.577 145.875 218.471 161.276C236.764 180.193 246.991 205.478 246.991 231.794V471.828C246.991 494.013 229.006 511.999 206.82 511.999H100.171C77.986 511.999 60 494.015 60 471.828V464.201C60 458.995 64.2203 454.774 69.4263 454.774C74.6324 454.774 78.8527 458.995 78.8527 464.201V471.828C78.8527 483.602 88.3976 493.146 100.171 493.146H206.82C218.594 493.146 228.138 483.601 228.138 471.828V410.316H138.367C127.488 410.316 118.672 401.497 118.672 390.621V261.682C118.672 250.804 127.491 241.987 138.367 241.987H228.138V231.794C228.138 210.369 219.812 189.783 204.918 174.381C193.094 162.154 184.639 147.265 180.139 131.158H126.852C122.352 147.265 113.898 162.154 102.073 174.381C87.1793 189.782 78.8534 210.369 78.8537 231.794V427.488C78.8537 432.695 74.6333 436.915 69.4273 436.915C64.2213 436.915 60.001 432.695 60.001 427.488V231.794C60.0006 205.478 70.2271 180.192 88.521 161.276C103.415 145.874 111.741 125.288 111.741 103.863ZM176.398 36.0185V18.8527H130.594V36.0185H176.398ZM228.138 391.463V371.028H197.263C192.057 371.028 187.837 366.807 187.837 361.601C187.837 356.395 192.057 352.175 197.263 352.175H228.138V335.826H177.782C172.576 335.826 168.355 331.605 168.355 326.399C168.355 321.193 172.576 316.973 177.782 316.973H228.138V300.625H163.253C158.047 300.625 153.827 296.405 153.827 291.198C153.827 285.992 158.047 281.772 163.253 281.772H228.138V260.84H138.367C137.901 260.84 137.524 261.217 137.524 261.682V390.621C137.524 391.086 137.901 391.463 138.367 391.463H228.138ZM176.75 112.305C176.516 109.508 176.398 106.691 176.398 103.863V85.6735H130.593V103.863C130.593 106.691 130.475 109.508 130.242 112.305H176.75ZM176.398 52.2553V69.4211H130.594V52.2553H176.398Z" fill="black"/>
</svg>
