<svg width="512" height="512" viewBox="0 0 512 512" fill="none" xmlns="http://www.w3.org/2000/svg">
<path d="M119.303 10.9482C119.29 4.88782 114.365 -0.0138315 108.305 2.93241e-05C102.245 0.0138912 97.3431 4.93801 97.357 10.9984C97.464 57.7961 117.675 102.804 153.613 134.026L267.951 233.359C287.112 250.859 293.018 278.613 282.642 302.399C274.476 319.939 259.143 333.019 240.597 337.271L174.063 352.522C144.506 359.298 125.905 388.596 132.346 418.226C133.634 424.148 139.478 427.905 145.4 426.618C151.322 425.331 155.079 419.486 153.792 413.564C149.905 395.683 161.13 378.002 178.966 373.914L245.501 358.662C271.203 352.77 291.821 334.786 302.602 311.523C302.62 311.486 302.637 311.448 302.654 311.41C302.668 311.379 302.682 311.347 302.696 311.315C316.934 278.842 308.859 240.905 282.63 217.044C282.569 216.988 282.506 216.932 282.443 216.877L168.006 117.459C136.898 90.4321 119.396 51.4666 119.303 10.9482Z" fill="black"/>
<path d="M365.865 200.602C362.53 195.541 355.724 194.143 350.664 197.478C345.604 200.813 344.205 207.619 347.54 212.679C355.047 224.069 359.124 239.609 359.124 255.704C359.124 271.8 355.047 287.34 347.54 298.73C337.189 314.437 332.336 334.413 332.336 353.833C332.336 373.253 337.189 393.229 347.54 408.936C355.047 420.326 359.124 435.866 359.124 451.961C359.124 468.057 355.047 483.596 347.54 494.987C344.205 500.047 345.604 506.853 350.664 510.188C355.724 513.523 362.53 512.124 365.865 507.064C376.217 491.357 381.07 471.381 381.07 451.961C381.07 432.542 376.217 412.566 365.865 396.859C358.358 385.468 354.283 369.929 354.283 353.833C354.283 337.737 358.358 322.198 365.865 310.806C376.217 295.1 381.07 275.124 381.07 255.704C381.07 236.284 376.217 216.308 365.865 200.602Z" fill="black"/>
<path d="M108.487 246.292C112.773 242.007 112.773 235.059 108.487 230.773C104.202 226.488 97.254 226.488 92.9687 230.773L73.1455 250.597C55.6175 268.125 55.6187 296.543 73.1459 314.072C90.6745 331.599 119.092 331.599 136.62 314.071L145.752 304.939C164.937 286.836 192.766 286.036 213.399 298.975C218.533 302.195 225.306 300.643 228.525 295.509C231.745 290.375 230.193 283.602 225.059 280.383C196.819 262.672 157.759 263.308 130.55 289.11C130.479 289.177 130.41 289.245 130.341 289.313L121.102 298.553C112.145 307.51 97.623 307.51 88.6644 298.553C79.7066 289.595 79.7071 275.072 88.6641 266.115L108.487 246.292Z" fill="black"/>
<path d="M437.059 310.807C440.394 305.747 438.996 298.941 433.935 295.606C428.875 292.271 422.07 293.669 418.735 298.73C408.383 314.436 403.529 334.412 403.529 353.832C403.529 373.252 408.383 393.229 418.735 408.936C426.242 420.326 430.318 435.866 430.318 451.961C430.318 468.057 426.242 483.596 418.735 494.987C415.4 500.047 416.798 506.853 421.858 510.188C426.919 513.523 433.724 512.124 437.059 507.064C447.411 491.357 452.264 471.381 452.264 451.961C452.264 432.542 447.411 412.566 437.059 396.859C429.552 385.468 425.476 369.928 425.476 353.832C425.476 337.737 429.552 322.197 437.059 310.807Z" fill="black"/>
<path d="M294.672 396.859C291.337 391.799 284.531 390.4 279.471 393.735C274.411 397.07 273.012 403.875 276.347 408.936C283.854 420.326 287.93 435.866 287.93 451.961C287.93 468.057 283.854 483.597 276.347 494.987C273.012 500.048 274.411 506.853 279.471 510.188C284.531 513.523 291.337 512.124 294.672 507.064C305.023 491.357 309.876 471.381 309.876 451.961C309.876 432.542 305.023 412.566 294.672 396.859Z" fill="black"/>
</svg>
