<svg width="512" height="512" viewBox="0 0 512 512" fill="none" xmlns="http://www.w3.org/2000/svg">
<path d="M179.2 255.8C206.358 255.8 232.404 245.011 251.608 225.808C270.811 206.604 281.6 180.558 281.6 153.4C281.6 126.242 270.811 100.196 251.608 80.9923C232.404 61.7885 206.358 51 179.2 51C152.042 51 125.996 61.7885 106.792 80.9923C87.5885 100.196 76.8 126.242 76.8 153.4C76.8 180.558 87.5885 206.604 106.792 225.808C125.996 245.011 152.042 255.8 179.2 255.8ZM142.64 294.2C63.84 294.2 0 358.04 0 436.84C0 449.96 10.64 460.6 23.76 460.6H334.64C336.08 460.6 337.44 460.44 338.88 460.2C277.84 416.12 259.04 347.4 256.4 300.04C243.52 296.2 229.92 294.2 215.84 294.2H142.64ZM389.68 231.56L293.68 269.96C286.4 272.92 281.6 279.96 281.6 287.8C281.6 338.44 302.32 422.84 389.44 459.16C394.16 461.16 399.52 461.16 404.24 459.16C491.28 422.84 512 338.44 512 287.8C512 279.96 507.2 272.92 499.92 269.96L403.92 231.56C399.36 229.72 394.24 229.72 389.68 231.56ZM473.12 300.6C470 341.16 451.36 393.96 396.8 420.36V270.04L473.12 300.6Z" fill="black"/>
</svg>
