<svg width="512" height="512" viewBox="0 0 512 512" fill="none" xmlns="http://www.w3.org/2000/svg">
<g clip-path="url(#clip0_50_186)">
<path fill-rule="evenodd" clip-rule="evenodd" d="M-0.125 102.6C-0.125 88.4615 11.3365 77 25.475 77H486.275C500.413 77 511.875 88.4615 511.875 102.6C511.875 116.738 500.413 128.2 486.275 128.2H25.475C11.3365 128.2 -0.125 116.738 -0.125 102.6ZM-0.125 256.201C-0.125 242.062 11.3365 230.601 25.475 230.601H486.275C500.413 230.601 511.875 242.062 511.875 256.201C511.875 270.339 500.413 281.801 486.275 281.801H25.475C11.3365 281.801 -0.125 270.339 -0.125 256.201ZM-0.125 409.801C-0.125 395.662 11.3365 384.201 25.475 384.201H486.275C500.413 384.201 511.875 395.662 511.875 409.801C511.875 423.939 500.413 435.4 486.275 435.4H25.475C11.3365 435.4 -0.125 423.939 -0.125 409.801Z" fill="black"/>
</g>
<defs>
<clipPath id="clip0_50_186">
<rect width="512" height="512" fill="white"/>
</clipPath>
</defs>
</svg>
