<svg width="512" height="512" viewBox="0 0 512 512" fill="none" xmlns="http://www.w3.org/2000/svg">
<g clip-path="url(#clip0_50_188)">
<mask id="mask0_50_188" style="mask-type:luminance" maskUnits="userSpaceOnUse" x="0" y="0" width="512" height="512">
<path d="M512 0H0V512H512V0Z" fill="white"/>
</mask>
<g mask="url(#mask0_50_188)">
<path fill-rule="evenodd" clip-rule="evenodd" d="M170.667 0C184.246 0 197.269 5.39427 206.871 14.9961C216.472 24.598 221.867 37.6209 221.867 51.2V170.667C221.867 184.246 216.472 197.269 206.871 206.871C197.269 216.472 184.246 221.867 170.667 221.867H51.2C37.6209 221.867 24.598 216.472 14.9961 206.871C5.39427 197.269 0 184.246 0 170.667V51.2C0 37.6209 5.39427 24.598 14.9961 14.9961C24.598 5.39427 37.6209 0 51.2 0H170.667ZM187.733 51.2C187.733 46.6736 185.935 42.3327 182.735 39.132C179.534 35.9314 175.193 34.1333 170.667 34.1333H51.2C46.6736 34.1333 42.3327 35.9314 39.132 39.132C35.9314 42.3327 34.1333 46.6736 34.1333 51.2V170.667C34.1333 175.193 35.9314 179.534 39.132 182.735C42.3327 185.935 46.6736 187.733 51.2 187.733H170.667C175.193 187.733 179.534 185.935 182.735 182.735C185.935 179.534 187.733 175.193 187.733 170.667V51.2ZM170.667 290.133C184.246 290.133 197.269 295.528 206.871 305.129C216.472 314.731 221.867 327.754 221.867 341.333V460.8C221.867 474.379 216.472 487.402 206.871 497.004C197.269 506.606 184.246 512 170.667 512H51.2C37.6209 512 24.598 506.606 14.9961 497.004C5.39427 487.402 0 474.379 0 460.8V341.333C0 327.754 5.39427 314.731 14.9961 305.129C24.598 295.528 37.6209 290.133 51.2 290.133H170.667ZM187.733 341.333C187.733 336.807 185.935 332.466 182.735 329.265C179.534 326.065 175.193 324.267 170.667 324.267H51.2C46.6736 324.267 42.3327 326.065 39.132 329.265C35.9314 332.466 34.1333 336.807 34.1333 341.333V460.8C34.1333 465.326 35.9314 469.667 39.132 472.868C42.3327 476.069 46.6736 477.867 51.2 477.867H170.667C175.193 477.867 179.534 476.069 182.735 472.868C185.935 469.667 187.733 465.326 187.733 460.8V341.333ZM512 341.333C512 327.754 506.606 314.731 497.004 305.129C487.402 295.528 474.379 290.133 460.8 290.133H341.333C327.754 290.133 314.731 295.528 305.129 305.129C295.528 314.731 290.133 327.754 290.133 341.333V460.8C290.133 474.379 295.528 487.402 305.129 497.004C314.731 506.606 327.754 512 341.333 512H460.8C474.379 512 487.402 506.606 497.004 497.004C506.606 487.402 512 474.379 512 460.8V341.333ZM460.8 324.267C465.326 324.267 469.667 326.065 472.868 329.265C476.069 332.466 477.867 336.807 477.867 341.333V460.8C477.867 465.326 476.069 469.667 472.868 472.868C469.667 476.069 465.326 477.867 460.8 477.867H341.333C336.807 477.867 332.466 476.069 329.265 472.868C326.065 469.667 324.267 465.326 324.267 460.8V341.333C324.267 336.807 326.065 332.466 329.265 329.265C332.466 326.065 336.807 324.267 341.333 324.267H460.8Z" fill="black"/>
<path d="M512 110.933C512 115.46 510.202 119.801 507.001 123.001C503.801 126.202 499.46 128 494.933 128H418.133V204.8C418.133 209.326 416.335 213.667 413.135 216.868C409.934 220.069 405.593 221.867 401.067 221.867C396.54 221.867 392.199 220.069 388.999 216.868C385.798 213.667 384 209.326 384 204.8V128H307.2C302.674 128 298.333 126.202 295.132 123.001C291.931 119.801 290.133 115.46 290.133 110.933C290.133 106.407 291.931 102.066 295.132 98.8654C298.333 95.6648 302.674 93.8667 307.2 93.8667H384V17.0667C384 12.5403 385.798 8.19933 388.999 4.99871C392.199 1.79809 396.54 0 401.067 0C405.593 0 409.934 1.79809 413.135 4.99871C416.335 8.19933 418.133 12.5403 418.133 17.0667V93.8667H494.933C499.46 93.8667 503.801 95.6648 507.001 98.8654C510.202 102.066 512 106.407 512 110.933Z" fill="black"/>
</g>
</g>
<defs>
<clipPath id="clip0_50_188">
<rect width="512" height="512" fill="white"/>
</clipPath>
</defs>
</svg>
