<svg width="512" height="512" viewBox="0 0 512 512" fill="none" xmlns="http://www.w3.org/2000/svg">
<path d="M482.426 229.987H470.82L452.011 151.309C449.37 139.903 439.365 131.94 427.639 131.94H351.172V116.933C351.172 97.624 335.464 81.916 316.155 81.916H35.017C15.708 81.915 0 97.623 0 116.932V350.046C0 369.345 15.708 385.063 35.017 385.063H63.681C70.364 410.926 93.896 430.085 121.809 430.085C149.723 430.085 173.254 410.926 179.937 385.063H340.065C346.748 410.926 370.28 430.085 398.193 430.085C426.106 430.085 449.638 410.926 456.321 385.063H476.981C496.29 385.063 511.998 369.355 511.998 350.046V259.562C512 243.254 498.734 229.987 482.426 229.987ZM423.687 161.954L439.955 229.987H351.172V161.954H423.687ZM30.015 350.046V306.145H61.906C70.194 306.145 76.913 299.426 76.913 291.138C76.913 282.85 70.194 276.131 61.906 276.131H30.015V116.932C30.0155 115.606 30.5427 114.334 31.4806 113.396C32.4186 112.458 33.6905 111.931 35.017 111.93H316.154C317.48 111.931 318.752 112.458 319.69 113.396C320.628 114.334 321.155 115.606 321.156 116.932V355.048H179.938C173.255 329.185 149.723 310.026 121.81 310.026C93.896 310.026 70.365 329.185 63.682 355.048H35.017C33.691 355.046 32.42 354.518 31.4824 353.581C30.5448 352.643 30.0171 351.372 30.015 350.046ZM121.809 400.07C105.258 400.07 91.794 386.59 91.794 370.055C91.794 339.453 132.481 328.615 147.791 355.048C153.14 364.227 153.2 375.745 147.791 385.063C142.59 394.027 132.895 400.07 121.809 400.07ZM398.194 400.07C375.095 400.07 360.686 374.901 372.211 355.048C387.58 328.515 428.208 339.528 428.208 370.055C428.209 386.522 414.801 400.07 398.194 400.07ZM481.985 350.046C481.984 351.372 481.457 352.644 480.519 353.582C479.581 354.52 478.309 355.048 476.983 355.048H456.323C449.64 329.185 426.108 310.026 398.195 310.026C379.176 310.026 362.187 318.92 351.172 332.777V260.001H481.986V350.046H481.985Z" fill="black"/>
</svg>
