<svg width="512" height="512" viewBox="0 0 512 512" fill="none" xmlns="http://www.w3.org/2000/svg">
<g clip-path="url(#clip0_63_71)">
<path d="M486.066 38.3985H255.675C248.886 38.3985 242.375 41.0955 237.574 45.8963C232.773 50.697 230.076 57.2082 230.076 63.9975C230.076 70.7868 232.773 77.298 237.574 82.0987C242.375 86.8994 248.886 89.5965 255.675 89.5965H486.066C492.856 89.5965 499.367 86.8994 504.167 82.0987C508.968 77.298 511.665 70.7868 511.665 63.9975C511.665 57.2082 508.968 50.697 504.167 45.8963C499.367 41.0955 492.856 38.3985 486.066 38.3985ZM486.066 166.393H306.873C300.084 166.393 293.573 169.09 288.772 173.891C283.971 178.692 281.274 185.203 281.274 191.992C281.274 198.782 283.971 205.293 288.772 210.094C293.573 214.894 300.084 217.591 306.873 217.591H486.066C492.856 217.591 499.367 214.894 504.167 210.094C508.968 205.293 511.665 198.782 511.665 191.992C511.665 185.203 508.968 178.692 504.167 173.891C499.367 169.09 492.856 166.393 486.066 166.393ZM486.066 294.388H358.071C351.282 294.388 344.771 297.085 339.97 301.886C335.169 306.687 332.472 313.198 332.472 319.987C332.472 326.777 335.169 333.288 339.97 338.089C344.771 342.889 351.282 345.586 358.071 345.586H486.066C492.856 345.586 499.367 342.889 504.167 338.089C508.968 333.288 511.665 326.777 511.665 319.987C511.665 313.198 508.968 306.687 504.167 301.886C499.367 297.085 492.856 294.388 486.066 294.388ZM486.066 422.383H409.269C402.48 422.383 395.969 425.08 391.168 429.881C386.367 434.682 383.67 441.193 383.67 447.982C383.67 454.772 386.367 461.283 391.168 466.084C395.969 470.884 402.48 473.581 409.269 473.581H486.066C492.856 473.581 499.367 470.884 504.167 466.084C508.968 461.283 511.665 454.772 511.665 447.982C511.665 441.193 508.968 434.682 504.167 429.881C499.367 425.08 492.856 422.383 486.066 422.383ZM102.081 0C95.2921 0 88.7809 2.69703 83.9802 7.49777C79.1794 12.2985 76.4824 18.8097 76.4824 25.599V424.585L43.3829 391.485C38.5549 386.822 32.0885 384.242 25.3765 384.3C18.6646 384.359 12.244 387.051 7.49777 391.797C2.75151 396.543 0.0592929 402.964 0.000967709 409.676C-0.0573575 416.388 2.52288 422.854 7.18594 427.682L83.9829 504.479C86.3608 506.863 89.1857 508.755 92.2957 510.045C95.4058 511.336 98.7398 512 102.107 512C105.474 512 108.808 511.336 111.918 510.045C115.028 508.755 117.853 506.863 120.231 504.479L197.028 427.682C201.691 422.854 204.271 416.388 204.213 409.676C204.155 402.964 201.462 396.543 196.716 391.797C191.97 387.051 185.549 384.359 178.837 384.3C172.125 384.242 165.659 386.822 160.831 391.485L127.68 424.585V25.599C127.68 18.8097 124.983 12.2985 120.183 7.49777C115.382 2.69703 108.871 0 102.081 0Z" fill="black"/>
</g>
<defs>
<clipPath id="clip0_63_71">
<rect width="512" height="512" fill="white"/>
</clipPath>
</defs>
</svg>
