<svg width="512" height="512" viewBox="0 0 512 512" fill="none" xmlns="http://www.w3.org/2000/svg">
<g clip-path="url(#clip0_64_123)">
<path d="M255.984 291C267.03 291 275.984 282.046 275.984 271C275.984 259.954 267.03 251 255.984 251C244.939 251 235.984 259.954 235.984 271C235.984 282.046 244.939 291 255.984 291Z" fill="black"/>
<path d="M315.984 291C327.03 291 335.984 282.046 335.984 271C335.984 259.954 327.03 251 315.984 251C304.939 251 295.984 259.954 295.984 271C295.984 282.046 304.939 291 315.984 291Z" fill="black"/>
<path d="M375.977 291C387.022 291 395.977 282.046 395.977 271C395.977 259.954 387.022 251 375.977 251C364.931 251 355.977 259.954 355.977 271C355.977 282.046 364.931 291 375.977 291Z" fill="black"/>
<path fill-rule="evenodd" clip-rule="evenodd" d="M480.052 369.741C529.528 300.324 521.965 205.219 454.387 143.268C423.51 114.963 384.147 97.342 341.626 92.421C341.362 92.0902 341.084 91.7706 340.793 91.463C303.802 53.038 250.658 31 194.988 31C89.049 31 0 109.933 0 211C0 246.435 11.007 280.404 31.916 309.741L2.707 401.447C1.80894 404.266 1.7644 407.287 2.57901 410.131C3.39361 412.975 5.03098 415.514 7.28515 417.43C9.53932 419.345 12.3096 420.552 15.2476 420.897C18.1856 421.242 21.1601 420.711 23.797 419.37L112.624 374.203C130.866 382.058 150.21 387.212 170.242 389.557C208.884 430.193 262.315 451 316.98 451C345.396 451 373.709 445.209 399.34 434.202L488.171 479.371C490.276 480.442 492.604 481.001 494.966 481C505.089 481 512.346 471.135 509.261 461.447L480.052 369.741ZM118.678 344.021C116.606 343.037 114.335 342.541 112.041 342.572C109.747 342.603 107.49 343.16 105.445 344.2L42.178 376.37L62.838 311.504C63.579 309.178 63.7411 306.706 63.3101 304.304C62.8792 301.901 61.8682 299.639 60.365 297.716C40.499 272.286 29.998 242.301 29.998 211C29.998 128.29 104.012 61 194.988 61C231.624 61 266.893 72.099 295.502 92.086C199.154 101.774 121.992 177.028 121.992 271C121.992 300.228 129.484 328.366 143.609 353.576C135.066 351.036 126.731 347.841 118.678 344.021ZM406.523 404.199C404.478 403.159 402.221 402.602 399.927 402.571C397.633 402.541 395.362 403.037 393.29 404.021C369.905 415.129 343.518 421 316.98 421C226.004 421 151.99 353.71 151.99 271C151.99 188.29 226.004 121 316.98 121C407.956 121 481.97 188.29 481.97 271C481.97 302.301 471.469 332.286 451.602 357.715C450.099 359.639 449.089 361.9 448.658 364.303C448.227 366.705 448.388 369.177 449.129 371.503L469.789 436.369L406.523 404.199Z" fill="black"/>
</g>
<defs>
<clipPath id="clip0_64_123">
<rect width="512" height="512" fill="white"/>
</clipPath>
</defs>
</svg>
