<svg width="512" height="512" viewBox="0 0 512 512" fill="none" xmlns="http://www.w3.org/2000/svg">
<path d="M256 483.515C248.711 483.515 241.68 480.874 236.203 476.077C215.523 457.991 195.578 440.995 177.984 426.003L177.898 425.925C126.312 381.968 81.7734 344.007 50.7812 306.612C16.1406 264.81 0 225.172 0 181.871C0 139.801 14.4297 100.988 40.6172 72.5779C67.1172 43.8319 103.484 28 143.031 28C172.586 28 199.648 37.344 223.477 55.7699C235.5 65.0699 246.398 76.4529 256 89.7299C265.602 76.4529 276.5 65.0699 288.523 55.7699C312.352 37.344 339.414 28 368.969 28C408.508 28 444.883 43.8319 471.383 72.5779C497.578 100.988 512 139.801 512 181.871C512 225.171 495.867 264.809 461.219 306.608C430.234 343.996 385.719 381.941 334.164 425.877L334.117 425.917C316.492 440.933 296.516 457.956 275.789 476.085C270.312 480.877 263.281 483.517 256 483.515Z" fill="black"/>
</svg>
