<svg width="512" height="512" viewBox="0 0 512 512" fill="none" xmlns="http://www.w3.org/2000/svg">
<path d="M255.999 483.515C248.71 483.515 241.684 480.874 236.207 476.077C215.523 457.991 195.582 440.995 177.988 426.003L177.898 425.925C126.316 381.968 81.7728 344.007 50.7809 306.612C16.137 264.81 0 225.172 0 181.871C0 139.801 14.426 100.988 40.6169 72.5779C67.1209 43.832 103.488 28 143.031 28C172.586 28 199.652 37.344 223.477 55.7699C235.5 65.0699 246.398 76.4529 255.999 89.7299C265.604 76.4529 276.499 65.0699 288.526 55.7699C312.351 37.344 339.417 28 368.972 28C408.511 28 444.882 43.832 471.386 72.5779C497.577 100.988 511.999 139.801 511.999 181.871C511.999 225.171 495.866 264.809 461.222 306.608C430.229 344.007 385.69 381.964 334.116 425.917C316.491 440.933 296.519 457.956 275.788 476.085C270.31 480.877 263.278 483.517 255.999 483.515ZM143.031 57.9919C111.965 57.9919 83.4258 70.3909 62.6639 92.9059C41.5939 115.762 29.9879 147.356 29.9879 181.871C29.9879 218.289 43.5229 250.859 73.8709 287.476C103.203 322.87 146.832 360.05 197.348 403.101L197.441 403.179C215.101 418.229 235.121 435.292 255.956 453.511C276.917 435.257 296.968 418.167 314.663 403.093C365.175 360.042 408.8 322.87 438.132 287.476C468.476 250.859 482.011 218.289 482.011 181.871C482.011 147.355 470.405 115.761 449.335 92.9059C428.577 70.3909 400.035 57.9919 368.972 57.9919C346.214 57.9919 325.319 65.2269 306.87 79.4919C290.429 92.2109 278.976 108.289 272.26 119.539C268.808 125.324 262.73 128.777 255.999 128.777C249.269 128.777 243.191 125.324 239.738 119.539C233.028 108.289 221.574 92.2109 205.128 79.4919C186.68 65.2269 165.785 57.9919 143.031 57.9919Z" fill="black"/>
</svg>
