<svg width="512" height="512" viewBox="0 0 512 512" fill="none" xmlns="http://www.w3.org/2000/svg">
<path fill-rule="evenodd" clip-rule="evenodd" d="M165.34 301.747C165.34 290.978 174.069 282.249 184.838 282.249C195.606 282.249 204.336 290.978 204.336 301.747C204.336 307.822 209.261 312.747 215.336 312.747C221.411 312.747 226.336 307.822 226.336 301.747C226.336 278.828 207.756 260.249 184.838 260.249C161.919 260.249 143.34 278.828 143.34 301.747C143.34 307.822 148.265 312.747 154.34 312.747C160.415 312.747 165.34 307.822 165.34 301.747ZM327.162 260.249C304.244 260.249 285.664 278.828 285.664 301.747C285.664 307.822 290.589 312.747 296.664 312.747C302.739 312.747 307.664 307.822 307.664 301.747C307.664 290.978 316.394 282.249 327.162 282.249C337.931 282.249 346.66 290.978 346.66 301.747C346.66 307.822 351.585 312.747 357.66 312.747C363.735 312.747 368.66 307.822 368.66 301.747C368.66 278.828 350.081 260.249 327.162 260.249ZM226.336 383.075C226.336 377 221.411 372.075 215.336 372.075C209.261 372.075 204.336 377 204.336 383.075C204.336 411.608 227.467 434.739 256 434.739C284.533 434.739 307.664 411.608 307.664 383.075C307.664 377 302.739 372.075 296.664 372.075C290.589 372.075 285.664 377 285.664 383.075C285.664 399.458 272.383 412.739 256 412.739C239.617 412.739 226.336 399.458 226.336 383.075Z" fill="black"/>
<path fill-rule="evenodd" clip-rule="evenodd" d="M233.861 16.266C230.732 16.266 227.751 17.5984 225.665 19.9299C223.578 22.2613 222.583 25.371 222.928 28.4807L227.424 68.9402C204.844 74.3938 188.071 94.7312 188.071 118.986C188.071 119.391 188.075 119.795 188.083 120.199C131.959 141.181 88.1097 187.341 70.4591 245H56.747C25.4057 245 0 270.407 0 301.747C0 333.087 25.4057 358.494 56.747 358.494H70.4442C94.7121 437.944 168.608 495.734 256 495.734C343.392 495.734 417.288 437.944 441.556 358.494H455.253C486.593 358.494 512 333.087 512 301.747C512 270.407 486.593 245 455.253 245H441.554C423.796 186.881 379.471 140.376 322.751 119.589C323.525 115.288 323.93 110.859 323.93 106.335C323.93 56.5908 283.604 16.266 233.861 16.266ZM209 127.5C210.5 147.5 230.325 158.59 249.675 158.59C272.434 158.59 291.683 146.372 300.5 125.368C316.5 79 277.941 45.2313 246.276 39.3956L250.487 77.2882C250.832 80.398 249.837 83.5077 247.75 85.8391C245.664 88.1705 242.683 89.503 239.554 89.503C223.271 89.503 209 103 209 127.5ZM192.537 142.058C142.639 161.876 104.214 204.287 89.9904 256.678C89.9025 258.124 89.5355 259.494 88.9425 260.735C85.7205 273.874 84.012 287.609 84.012 301.746C84.012 315.865 85.7132 329.586 88.9219 342.716C89.5351 343.986 89.9116 345.391 89.9939 346.875C109.818 419.97 176.631 473.734 256 473.734C335.369 473.734 402.182 419.97 422.006 346.875C422.088 345.391 422.465 343.986 423.078 342.716C426.287 329.586 427.988 315.865 427.988 301.746C427.988 287.626 426.286 273.903 423.075 260.772C422.465 259.506 422.09 258.106 422.007 256.628C407.423 202.865 367.408 159.561 315.661 140.422C303.31 164.283 278.397 180.59 249.675 180.59C223.81 180.59 201.668 164.65 192.537 142.058ZM446.884 267C448.923 278.272 449.988 289.884 449.988 301.746C449.988 313.607 448.923 325.22 446.885 336.494H455.253C474.443 336.494 490 320.937 490 301.747C490 282.557 474.443 267 455.253 267H446.884ZM65.1154 336.494C63.0766 325.22 62.012 313.607 62.012 301.746C62.012 289.881 63.0782 278.27 65.1198 267H56.747C37.5563 267 22 282.557 22 301.747C22 320.937 37.5563 336.494 56.747 336.494H65.1154Z" fill="black"/>
</svg>
