<svg width="512" height="512" viewBox="0 0 512 512" fill="none" xmlns="http://www.w3.org/2000/svg">
<g clip-path="url(#clip0_70_332)">
<path fill-rule="evenodd" clip-rule="evenodd" d="M387.883 78.232C387.711 76.876 383.656 47.61 356.108 36.065C356.908 30.925 356.824 24.319 353.561 17.892C349.175 9.254 340.52 3.625 327.835 1.159C327.291 1.05308 326.738 0.999838 326.184 1H209.997C162.819 1 124.436 39.382 124.436 86.562V132.153C124.436 144.031 128.485 155.614 135.835 164.766C139.454 169.274 143.907 177.124 144.63 188.974V202.705L144.632 202.897C144.687 205.418 146.429 263.556 185.653 292.326V311.414L158.198 321.256C158.17 321.266 158.142 321.276 158.114 321.286L50.1404 360.351C29.8844 367.676 15.1144 385.431 11.5954 406.683L0.428394 474.116C-0.325452 478.646 -0.0822469 483.286 1.14105 487.712C2.36436 492.138 4.53832 496.245 7.51139 499.745C10.4791 503.249 14.1752 506.064 18.3423 507.994C22.5094 509.924 27.0471 510.922 31.6394 510.919H256.001C256.034 510.919 256.066 510.918 256.098 510.918C256.13 510.918 256.161 510.919 256.193 510.919H480.364C484.956 510.923 489.494 509.925 493.661 507.995C497.829 506.065 501.525 503.249 504.492 499.744C507.464 496.244 509.638 492.137 510.861 487.711C512.084 483.285 512.327 478.645 511.573 474.116L500.406 406.683C496.887 385.432 482.118 367.677 461.862 360.351L354.023 321.335C353.951 321.307 353.879 321.281 353.807 321.255L326.353 311.413V291.051C340.611 280.516 362.54 255.835 367.422 202.105C367.81 199.741 371.469 178.824 382.023 161.898C385.901 155.675 387.952 148.58 387.952 141.38V79.325C387.952 78.96 387.929 78.595 387.883 78.232ZM350.169 200.653L350.169 129.71C349.724 126.936 346.134 109.278 326.02 101.858L285.786 87.734C280.202 85.7742 274.105 85.8507 268.573 87.95C260.319 91.085 248.982 95.303 241.836 97.595C237.681 98.927 233.334 99.602 228.913 99.602H191.331C187.882 100.241 167.821 104.972 161.943 129.281L161.943 202.58C162.018 204.78 164.245 257.501 198.283 280.03C198.505 280.179 198.725 280.331 198.942 280.487L199.134 280.623L199.152 280.635C199.271 280.715 199.39 280.796 199.508 280.876L199.634 280.962L199.775 281.058C200.61 281.629 201.446 282.214 202.279 282.811C203.995 284.039 205.683 285.306 207.342 286.61C224.903 300.402 241.503 308.815 250.71 308.579C251.173 308.565 251.636 308.59 252.094 308.653C252.14 308.659 252.185 308.665 252.231 308.672C253.313 308.824 275.374 311.576 298.583 290.594C302.857 286.731 307.635 282.973 312.784 279.426L313.264 279.088C313.588 278.86 313.912 278.632 314.24 278.411C323.482 272.204 345.451 252.215 350.168 200.653H350.169ZM367.483 152.487C369.547 149.077 370.638 145.242 370.638 141.376L370.637 79.98C370.051 76.561 365.556 55.424 343.518 50.119C342.269 49.8183 341.102 49.2434 340.103 48.436C339.104 47.6286 338.297 46.6089 337.741 45.451C337.185 44.293 336.893 43.0257 336.888 41.7411C336.882 40.4565 337.163 39.1868 337.709 38.024C337.712 38.018 340.782 30.862 338.087 25.665C335.886 21.419 330.084 19.332 325.31 18.315H209.995C172.364 18.315 141.747 48.932 141.747 86.564V132.154C141.746 136.953 142.727 141.701 144.63 146.107V128.291C144.63 128.251 144.63 128.212 144.63 128.172C144.633 127.963 144.644 127.754 144.662 127.545C144.695 127.162 144.754 126.78 144.838 126.404C153.527 87.4591 188.054 82.5491 189.519 82.3591C189.888 82.3121 190.26 82.2881 190.631 82.2881H228.912C231.503 82.2932 234.079 81.896 236.548 81.109C241.919 79.386 250.868 76.1541 262.424 71.7641C263.118 71.5007 263.818 71.2562 264.522 71.0305C268.726 69.6806 273.099 69.005 277.474 69.005C281.924 69.0042 286.344 69.7038 290.573 71.0762C290.889 71.179 291.206 71.2857 291.521 71.3961L330.5 87.5L335 89C365.543 100.22 367.207 124.897 367.411 127.924L367.419 128.045L367.423 128.088C367.425 128.128 367.428 128.16 367.431 128.183C367.464 128.494 367.481 128.806 367.483 129.118V152.487ZM156.07 338.185L56.0304 376.629C48.9639 379.19 42.7061 383.585 37.8992 389.363C33.0924 395.142 29.9095 402.095 28.6774 409.51L17.5104 476.943C17.1692 478.994 17.2793 481.094 17.833 483.098C18.3867 485.102 19.3707 486.962 20.7164 488.547C22.0597 490.134 23.733 491.409 25.6197 492.283C27.5065 493.157 29.5611 493.608 31.6404 493.607L241.67 493.817L228.359 469.615L228.338 469.579L228.319 469.544V469.545L156.07 338.185ZM480.365 493.607L270.336 493.817L283.793 469.351C283.807 469.326 283.821 469.301 283.835 469.277L283.836 469.274L308.613 424.227C308.633 424.19 308.653 424.153 308.673 424.116L308.692 424.08L308.714 424.036L355.933 338.186L455.977 376.629C470.352 381.829 480.833 394.429 483.33 409.51L494.497 476.943V476.944C494.838 478.995 494.728 481.095 494.174 483.099C493.62 485.103 492.636 486.962 491.29 488.547C489.946 490.134 488.272 491.408 486.386 492.282C484.499 493.156 482.444 493.608 480.365 493.607ZM290.775 420.721L280.84 438.785L275.461 404.881L277.254 402.306L290.775 420.721ZM300.015 404.047L284.141 382.428C284.125 382.405 284.109 382.382 284.093 382.359C284.077 382.337 284.061 382.315 284.045 382.294L268.335 360.899L318.879 327.125L338.408 334.127L300.015 404.047ZM243.669 360.898L228.074 382.139L228.059 382.159L227.997 382.243L212.024 403.998L173.594 334.127L193.128 327.125L243.669 360.898ZM236.737 404.88L234.848 402.167L221.225 420.72L231.313 439.064L236.737 404.88ZM256.002 348.315L309.039 312.875H309.041V304.466C292.835 318.682 276.758 323.754 265.41 325.415C261.538 325.982 258.216 326.151 255.628 326.151C254.702 326.151 253.87 326.129 253.14 326.096C252.213 326.054 251.451 325.994 250.871 325.938C250.723 325.923 250.587 325.909 250.463 325.896H250.362C249.004 325.896 247.619 325.807 246.213 325.639C234.619 324.254 221.628 317.473 210.872 310.455C208.063 308.623 205.406 306.774 202.966 305.001L202.966 312.874L256.002 348.315ZM256.003 483.953L244.918 463.8L254.382 404.151C254.733 401.942 254.214 399.683 252.936 397.848L245.682 387.43L256.028 373.392L266.428 387.556L259.261 397.848C257.983 399.683 257.464 401.942 257.815 404.151L267.236 463.528L256.003 483.953Z" fill="black"/>
</g>
<defs>
<clipPath id="clip0_70_332">
<rect width="512" height="512" fill="white"/>
</clipPath>
</defs>
</svg>
