<svg width="512" height="512" viewBox="0 0 512 512" fill="none" xmlns="http://www.w3.org/2000/svg">
<path fill-rule="evenodd" clip-rule="evenodd" d="M503.195 91.3361L503.192 91.3351L402.37 51.0062C399.022 49.6646 395.286 49.6646 391.939 51.0062L291.114 91.3361C288.515 92.3777 286.287 94.1737 284.718 96.4927C283.149 98.8116 282.31 101.548 282.309 104.348V208.571C282.363 228.396 287.522 247.873 297.289 265.125C307.056 282.377 321.101 296.823 338.072 307.07L338.082 307.076L389.946 338.191L389.948 338.192C392.125 339.496 394.616 340.186 397.154 340.186C399.693 340.186 402.184 339.496 404.361 338.192L404.363 338.19L443.628 314.628V420.59C443.624 423.931 442.295 427.134 439.933 429.496C437.57 431.859 434.368 433.188 431.027 433.192H40.6434C37.3025 433.188 34.0996 431.859 31.7372 429.496C29.3755 427.135 28.0467 423.933 28.0418 420.593V199.029H256C259.719 199.029 263.285 197.552 265.914 194.922C268.544 192.293 270.021 188.727 270.021 185.008C270.021 181.29 268.544 177.723 265.914 175.094C263.285 172.464 259.719 170.987 256 170.987H28.0418V151.133C28.0467 147.793 29.3755 144.591 31.7372 142.23C34.0996 139.867 37.3025 138.538 40.6434 138.534H256C259.719 138.534 263.285 137.057 265.914 134.428C268.544 131.798 270.021 128.232 270.021 124.513C270.021 120.795 268.544 117.228 265.914 114.599C263.285 111.97 259.719 110.492 256 110.492H40.6365C29.8608 110.498 19.5282 114.782 11.9087 122.401C4.28915 130.021 0.00591642 140.353 0 151.129V420.537C0.00591642 431.312 4.28914 441.645 11.9087 449.264C19.5282 456.884 29.8608 461.167 40.6365 461.173H431.034C441.809 461.167 452.142 456.884 459.761 449.264C467.381 441.645 471.664 431.312 471.67 420.537V295.73C484.015 285.153 493.993 272.084 500.942 257.372C508.157 242.099 511.932 225.428 512 208.536V208.528V104.348C511.999 101.547 511.16 98.8117 509.591 96.4927C508.022 94.1737 505.794 92.3777 503.195 91.3361ZM383.715 227.631C379.997 227.631 376.431 226.154 373.802 223.526L346.899 196.643C345.598 195.34 344.566 193.793 343.862 192.091C343.158 190.389 342.797 188.564 342.798 186.722C342.799 184.88 343.164 183.057 343.87 181.355C344.576 179.654 345.61 178.109 346.913 176.807C348.217 175.505 349.764 174.473 351.466 173.77C353.168 173.066 354.992 172.704 356.835 172.706C358.676 172.707 360.5 173.071 362.201 173.777C363.903 174.483 365.448 175.518 366.75 176.821L383.705 193.794L427.559 149.921L427.56 149.92C430.189 147.288 433.755 145.808 437.474 145.806C441.194 145.803 444.763 147.278 447.396 149.907C450.028 152.536 451.508 156.102 451.511 159.822C451.513 163.542 450.038 167.111 447.41 169.743L447.408 169.745L393.627 223.526C390.998 226.154 387.432 227.631 383.715 227.631ZM483.958 208.55C483.919 223.542 480.017 238.27 472.629 251.315C465.242 264.359 454.619 275.279 441.784 283.024L441.782 283.025L397.154 309.813L352.527 283.025L352.525 283.024C339.69 275.279 329.067 264.359 321.679 251.315C314.292 238.27 310.39 223.542 310.351 208.55V113.831L397.154 79.1092L483.958 113.831V208.55ZM74.5157 372.636C70.7971 372.636 67.2308 374.114 64.6014 376.743C61.972 379.372 60.4948 382.939 60.4948 386.657C60.4948 390.376 61.972 393.942 64.6014 396.572C67.2309 399.201 70.7971 400.678 74.5157 400.678H155.175C158.894 400.678 162.46 399.201 165.09 396.572C167.719 393.942 169.196 390.376 169.196 386.657C169.196 382.939 167.719 379.372 165.09 376.743C162.46 374.114 158.894 372.636 155.175 372.636H74.5157Z" fill="black"/>
</svg>
