<svg width="512" height="512" viewBox="0 0 512 512" fill="none" xmlns="http://www.w3.org/2000/svg">
<path d="M490 96C490 86.7174 486.313 77.815 479.749 71.2513C473.185 64.6875 464.283 61 455 61H35C25.7174 61 16.815 64.6875 10.2513 71.2513C3.68749 77.815 0 86.7174 0 96V126.58H490V96ZM292 253.33C292.013 241.399 296.759 229.961 305.195 221.525C313.631 213.089 325.069 208.343 337 208.33C350.799 208.354 364.26 204.064 375.5 196.06L390.95 185.06C398.563 179.654 407.668 176.75 417.005 176.75C426.342 176.75 435.447 179.654 443.06 185.06L458.5 196.06C467.794 202.691 478.646 206.805 490 208V156.58H0V366.23C0 375.513 3.68749 384.415 10.2513 390.979C16.815 397.543 25.7174 401.23 35 401.23H312.49C299.005 376.591 291.958 348.947 292 320.86V253.33ZM68.49 226.81H78.29C80.2598 226.81 82.2104 227.198 84.0303 227.952C85.8501 228.706 87.5037 229.811 88.8966 231.203C90.2895 232.596 91.3944 234.25 92.1482 236.07C92.902 237.89 93.29 239.84 93.29 241.81C93.29 243.78 92.902 245.73 92.1482 247.55C91.3944 249.37 90.2895 251.024 88.8966 252.417C87.5037 253.809 85.8501 254.914 84.0303 255.668C82.2104 256.422 80.2598 256.81 78.29 256.81H68.49C66.5202 256.81 64.5696 256.422 62.7497 255.668C60.9299 254.914 59.2763 253.809 57.8834 252.417C56.4905 251.024 55.3856 249.37 54.6318 247.55C53.878 245.73 53.49 243.78 53.49 241.81C53.49 239.84 53.878 237.89 54.6318 236.07C55.3856 234.25 56.4905 232.596 57.8834 231.203C59.2763 229.811 60.9299 228.706 62.7497 227.952C64.5696 227.198 66.5202 226.81 68.49 226.81ZM196.86 321H68.49C64.5118 321 60.6964 319.42 57.8834 316.607C55.0704 313.794 53.49 309.978 53.49 306C53.49 302.022 55.0704 298.206 57.8834 295.393C60.6964 292.58 64.5118 291 68.49 291H196.86C200.838 291 204.654 292.58 207.467 295.393C210.28 298.206 211.86 302.022 211.86 306C211.86 309.978 210.28 313.794 207.467 316.607C204.654 319.42 200.838 321 196.86 321ZM196.86 256.81H137.13C133.152 256.81 129.336 255.23 126.523 252.417C123.71 249.604 122.13 245.788 122.13 241.81C122.13 237.832 123.71 234.016 126.523 231.203C129.336 228.39 133.152 226.81 137.13 226.81H196.86C200.838 226.81 204.654 228.39 207.467 231.203C210.28 234.016 211.86 237.832 211.86 241.81C211.86 245.788 210.28 249.604 207.467 252.417C204.654 255.23 200.838 256.81 196.86 256.81Z" fill="black"/>
<path d="M497 238.33C476.978 238.364 457.447 232.136 441.14 220.52L425.68 209.52C423.143 207.72 420.11 206.753 417 206.753C413.89 206.753 410.857 207.72 408.32 209.52L392.86 220.52C376.553 232.136 357.022 238.364 337 238.33C333.022 238.33 329.206 239.91 326.393 242.723C323.58 245.536 322 249.352 322 253.33V320.86C321.999 348.981 330.598 376.43 346.644 399.524C362.69 422.618 385.415 440.252 411.77 450.06C415.144 451.315 418.856 451.315 422.23 450.06C448.585 440.252 471.31 422.618 487.356 399.524C503.402 376.43 512.001 348.981 512 320.86V253.33C512 249.352 510.42 245.536 507.607 242.723C504.794 239.91 500.978 238.33 497 238.33ZM458.26 318.18L421.92 359.43C420.512 361.028 418.781 362.308 416.84 363.184C414.899 364.061 412.794 364.514 410.665 364.514C408.536 364.514 406.431 364.061 404.49 363.184C402.549 362.308 400.818 361.028 399.41 359.43L375.74 332.57C374.438 331.091 373.44 329.371 372.803 327.506C372.166 325.642 371.902 323.67 372.027 321.704C372.279 317.733 374.099 314.025 377.085 311.395C380.071 308.765 383.98 307.43 387.951 307.682C391.922 307.934 395.63 309.754 398.26 312.74L410.66 326.82L435.74 298.35C438.37 295.364 442.078 293.544 446.049 293.292C450.02 293.04 453.929 294.375 456.915 297.005C459.901 299.635 461.721 303.343 461.973 307.314C462.225 311.285 460.89 315.194 458.26 318.18Z" fill="black"/>
</svg>
