<svg width="512" height="512" viewBox="0 0 512 512" fill="none" xmlns="http://www.w3.org/2000/svg">
<g clip-path="url(#clip0_50_148)">
<mask id="mask0_50_148" style="mask-type:luminance" maskUnits="userSpaceOnUse" x="0" y="0" width="512" height="512">
<path d="M512 0H0V512H512V0Z" fill="white"/>
</mask>
<g mask="url(#mask0_50_148)">
<path d="M104.331 340.343C154.831 400.709 215.622 448.239 285.006 481.87C311.423 494.389 346.752 509.242 386.112 511.788C388.552 511.894 390.886 512 393.326 512C419.743 512 440.961 502.876 458.254 484.098C458.36 483.992 458.573 483.78 458.679 483.567C464.832 476.141 471.834 469.457 479.154 462.349C484.141 457.575 489.233 452.588 494.113 447.496C516.711 423.944 516.711 394.026 493.901 371.216L430.14 307.455C419.319 296.209 406.375 290.268 392.796 290.268C379.216 290.268 366.166 296.209 355.027 307.349L317.046 345.329C313.545 343.314 309.938 341.51 306.543 339.813C302.299 337.691 298.374 335.675 294.873 333.447C260.287 311.486 228.883 282.841 198.859 246.027C183.688 226.825 173.503 210.699 166.395 194.254C176.368 185.237 185.704 175.794 194.722 166.564C197.905 163.276 201.193 159.987 204.482 156.698C215.94 145.24 222.094 131.978 222.094 118.505C222.094 105.031 216.046 91.7696 204.482 80.3116L172.867 48.6962C169.154 44.983 165.653 41.3759 162.045 37.6627C155.043 30.4484 147.723 23.022 140.509 16.3382C129.581 5.62288 116.744 0 103.164 0C89.6907 0 76.7475 5.62288 65.3957 16.4443L25.7172 56.1227C11.2887 70.5512 3.11965 88.0564 1.42218 108.32C-0.593571 133.676 4.07448 160.623 16.169 193.194C34.7351 243.587 62.7434 290.374 104.331 340.343ZM27.3086 110.548C28.5817 96.4376 33.9924 84.6614 44.1773 74.4766L83.6435 35.0104C89.7968 29.0692 96.5867 25.9925 103.164 25.9925C109.636 25.9925 116.214 29.0692 122.261 35.2225C129.369 41.8002 136.053 48.6962 143.267 56.0166C146.874 59.7298 150.588 63.443 154.301 67.2623L185.916 98.8777C192.494 105.455 195.889 112.139 195.889 118.717C195.889 125.295 192.494 131.978 185.916 138.556C182.627 141.845 179.338 145.24 176.05 148.529C166.183 158.501 156.953 167.944 146.768 176.961L146.238 177.492C137.432 186.298 138.811 194.679 140.933 201.044C141.039 201.363 141.145 201.575 141.251 201.893C149.421 221.52 160.772 240.192 178.49 262.472C210.317 301.726 243.842 332.174 280.762 355.62C285.324 358.591 290.205 360.925 294.767 363.259C299.01 365.381 302.936 367.397 306.437 369.625C306.861 369.837 307.179 370.049 307.604 370.261C311.105 372.065 314.5 372.913 317.895 372.913C326.382 372.913 331.899 367.503 333.702 365.699L373.381 326.021C379.534 319.867 386.218 316.579 392.796 316.579C400.859 316.579 407.436 321.565 411.574 326.021L475.547 389.888C488.278 402.619 488.172 416.411 475.229 429.885C470.773 434.659 466.105 439.221 461.119 443.995C453.692 451.209 445.948 458.636 438.946 467.017C426.745 480.172 412.21 486.326 393.432 486.326C391.629 486.326 389.719 486.22 387.915 486.114C353.117 483.886 320.759 470.306 296.464 458.742C230.475 426.808 172.549 381.507 124.489 324.005C84.9166 276.37 58.2875 232.023 40.6762 184.494C29.7487 155.319 25.6112 131.872 27.3086 110.548Z" fill="black"/>
</g>
</g>
<defs>
<clipPath id="clip0_50_148">
<rect width="512" height="512" fill="white"/>
</clipPath>
</defs>
</svg>
