<svg width="512" height="512" viewBox="0 0 512 512" fill="none" xmlns="http://www.w3.org/2000/svg">
<path fill-rule="evenodd" clip-rule="evenodd" d="M68.7083 14.5534C130.185 -16.6546 205.184 7.86285 236.592 69.2986C236.802 69.563 237.057 69.9237 237.297 70.3789L237.33 70.4409L237.361 70.5036C237.613 71.011 237.767 71.4714 237.864 71.8258C237.881 71.8871 237.896 71.9467 237.911 72.0037C267.01 132.385 243.698 205.126 184.872 237.129C124.21 270.13 48.4052 247.638 15.3568 186.906C14.968 186.376 14.6959 185.833 14.5085 185.318C14.1677 184.671 13.8334 184.021 13.5052 183.37C-17.7021 121.455 7.01236 45.8722 68.7083 14.5534ZM213.214 102.097C225.961 147.722 201.682 196.197 156.58 212.662C146.512 216.337 135.876 218.202 125.161 218.172L125.149 218.172C97.6841 218.151 71.8211 205.735 54.5758 184.597L213.214 102.097ZM38.2521 154.78C23.4745 109.548 45.8346 59.8739 90.415 41.5326C101.433 36.9994 113.23 34.6734 125.14 34.6849C154.086 34.7115 181.164 48.4933 198.3 71.5816L38.2521 154.78Z" fill="black"/>
<path fill-rule="evenodd" clip-rule="evenodd" d="M485.925 178.268C444.599 128.05 369.045 122.494 317.531 165.189L152.655 301.841C101.143 344.534 92.2897 420.048 133.616 470.267C174.942 520.487 250.504 526.035 302.016 483.341L466.892 346.687C518.406 303.993 527.238 228.471 485.925 178.268ZM337.092 188.96C375.903 156.791 432.005 161.162 462.239 197.9C492.469 234.638 486.143 290.75 447.331 322.918L376.733 381.432L266.494 247.472L337.092 188.96ZM282.455 459.569C243.642 491.738 187.522 487.36 157.302 450.637C127.082 413.914 133.404 357.78 172.216 325.611L242.808 267.104L353.046 401.062L282.455 459.569Z" fill="black"/>
</svg>
