<svg width="512" height="512" viewBox="0 0 512 512" fill="none" xmlns="http://www.w3.org/2000/svg">
<path d="M437.203 13.696L437.209 13.6987C441.336 15.5343 444.835 18.5395 447.272 22.3426C449.709 26.1457 450.977 30.5798 450.92 35.0963V35.1026V476.893V476.896C450.961 482.663 448.862 488.239 445.03 492.549C436.478 502.169 421.745 503.033 412.125 494.478L412.124 494.478L378.819 465.016L378.486 464.721L378.154 465.018L332.872 505.512L332.871 505.512C323.964 513.488 310.481 513.488 301.574 505.512L301.573 505.512L256.333 465.055L255.999 464.757L255.666 465.055L210.433 505.517L210.433 505.517C201.528 513.494 188.046 513.494 179.141 505.517L179.14 505.517L133.87 465.021L133.538 464.725L133.205 465.02L99.9308 494.483L99.9301 494.483C95.6212 498.313 90.0477 500.414 84.2827 500.38C71.3913 500.304 61.0024 489.792 61.0787 476.9V476.897L61.0787 35.1026L61.0787 35.0992C61.039 29.3359 63.1361 23.7624 66.9649 19.4546C75.5166 9.83363 90.2492 8.96627 99.8702 17.518L99.8711 17.5188L133.177 46.9806L133.51 47.2752L133.841 46.9788L179.124 6.4835L179.124 6.48325C188.031 -1.49442 201.514 -1.49442 210.422 6.48325L210.422 6.48352L255.666 46.9404L255.999 47.2385L256.333 46.9404L301.566 6.48348L301.566 6.48321C310.471 -1.4944 323.953 -1.4944 332.858 6.48321L332.858 6.48346L378.129 46.9787L378.461 47.2754L378.794 46.9804L412.068 17.5174L412.071 17.5146C415.428 14.491 419.598 12.5178 424.065 11.8392C428.532 11.1605 433.099 11.806 437.203 13.696ZM362.817 447.889L362.817 447.888C371.681 439.951 385.086 439.916 393.992 447.805L427.23 477.261L428.062 477.998L428.062 476.886L427.942 35.1025L427.942 33.9903L427.11 34.7287L393.926 64.1917L393.926 64.1919C385.053 72.0794 371.673 72.043 362.844 64.1074L362.843 64.1065L317.555 23.6125L317.221 23.3145L316.888 23.6125L271.649 64.0694L271.648 64.0697C262.742 72.0473 249.259 72.0473 240.353 64.0697L240.353 64.0694L195.118 23.6125L194.785 23.3144L194.451 23.6125L149.182 64.1066L149.182 64.1068C140.318 72.0444 126.913 72.0796 118.007 64.1902C118.007 64.1902 118.007 64.1901 118.007 64.1901L84.7684 34.7344L83.9365 33.9971L83.9368 35.1087L84.0567 476.884L84.057 477.996L84.8886 477.258L118.073 447.804L118.073 447.803C126.946 439.916 140.326 439.952 149.155 447.888L149.156 447.889L194.444 488.383L194.778 488.681L195.111 488.383L240.35 447.926L240.35 447.926C249.257 439.948 262.74 439.948 271.646 447.926L271.646 447.926L316.881 488.383L317.214 488.681L317.547 488.383L362.817 447.889ZM130.863 255.998C130.863 249.652 136.007 244.509 142.352 244.509H369.647C375.991 244.509 381.136 249.652 381.136 255.998C381.136 262.343 375.992 267.487 369.647 267.487H142.352C136.007 267.487 130.863 262.343 130.863 255.998ZM142.352 172.575H261.746C268.09 172.575 273.235 177.718 273.235 184.064C273.235 190.409 268.091 195.553 261.746 195.553H142.352C136.007 195.553 130.863 190.409 130.863 184.064C130.863 177.718 136.007 172.575 142.352 172.575ZM130.863 327.932C130.863 321.586 136.007 316.443 142.352 316.443H369.647C375.991 316.443 381.136 321.586 381.136 327.932C381.136 334.277 375.992 339.421 369.647 339.421H142.352C136.007 339.421 130.863 334.277 130.863 327.932Z" fill="black" stroke="black"/>
</svg>
