<svg width="512" height="512" viewBox="0 0 512 512" fill="none" xmlns="http://www.w3.org/2000/svg">
<g clip-path="url(#clip0_50_164)">
<mask id="mask0_50_164" style="mask-type:luminance" maskUnits="userSpaceOnUse" x="0" y="0" width="512" height="512">
<path d="M512 0H0V512H512V0Z" fill="white"/>
</mask>
<g mask="url(#mask0_50_164)">
<path d="M490.329 0.841068L11.37 157.346C-2.15648 161.766 -4.11257 180.165 8.19792 187.322L189.201 292.573C191.994 294.197 195.202 294.967 198.428 294.786C201.654 294.605 204.756 293.481 207.35 291.555L258.231 253.769L220.445 304.65C218.519 307.244 217.396 310.346 217.215 313.572C217.034 316.798 217.803 320.006 219.427 322.8L324.677 503.803C331.843 516.124 350.238 514.146 354.655 500.631L511.16 21.6717C515.358 8.81099 503.127 -3.34363 490.329 0.841068ZM334.702 455.333L253.453 315.604L351.426 183.679C353.787 180.497 354.926 176.574 354.635 172.623C354.344 168.672 352.643 164.957 349.842 162.156C347.04 159.355 343.326 157.654 339.375 157.363C335.424 157.072 331.5 158.211 328.319 160.572L196.394 258.546L56.6657 177.295L469.651 42.3474L334.702 455.333ZM173.407 361.948L63.7437 471.61C57.2943 478.059 46.8367 478.061 40.3873 471.61C33.9368 465.161 33.9368 454.703 40.3873 448.254L150.05 338.592C156.502 332.143 166.959 332.141 173.407 338.592C179.857 345.041 179.857 355.499 173.407 361.948ZM28.533 366.098C22.0826 359.647 22.0826 349.191 28.533 342.741L71.8045 299.469C78.2539 293.018 88.7116 293.018 95.161 299.469C101.611 305.919 101.611 316.376 95.161 322.825L51.8895 366.098C45.4411 372.546 34.9825 372.547 28.533 366.098ZM212.53 416.837C218.98 423.286 218.98 433.744 212.53 440.193L169.257 483.465C167.725 485.001 165.905 486.219 163.901 487.049C161.897 487.879 159.749 488.305 157.579 488.303C142.997 488.303 135.468 470.541 145.902 460.108L189.174 416.837C195.623 410.386 206.08 410.386 212.53 416.837Z" fill="black"/>
</g>
</g>
<defs>
<clipPath id="clip0_50_164">
<rect width="512" height="512" fill="white"/>
</clipPath>
</defs>
</svg>
