<svg width="512" height="512" viewBox="0 0 512 512" fill="none" xmlns="http://www.w3.org/2000/svg">
<g clip-path="url(#clip0_67_71)">
<path d="M255.963 32C270.163 32 283.263 39.5 290.463 51.8L506.463 419.8C513.763 432.2 513.763 447.5 506.663 459.9C499.563 472.3 486.263 480 471.963 480H39.9631C25.6631 480 12.3631 472.3 5.26309 459.9C-1.83691 447.5 -1.73691 432.1 5.46309 419.8L221.463 51.8C228.663 39.5 241.763 32 255.963 32ZM255.963 160C242.663 160 231.963 170.7 231.963 184V296C231.963 309.3 242.663 320 255.963 320C269.263 320 279.963 309.3 279.963 296V184C279.963 170.7 269.263 160 255.963 160ZM287.963 384C287.963 375.513 284.592 367.374 278.59 361.373C272.589 355.371 264.45 352 255.963 352C247.476 352 239.337 355.371 233.336 361.373C227.334 367.374 223.963 375.513 223.963 384C223.963 392.487 227.334 400.626 233.336 406.627C239.337 412.629 247.476 416 255.963 416C264.45 416 272.589 412.629 278.59 406.627C284.592 400.626 287.963 392.487 287.963 384Z" fill="black"/>
</g>
<defs>
<clipPath id="clip0_67_71">
<rect width="512" height="512" fill="white"/>
</clipPath>
</defs>
</svg>
