<svg width="512" height="512" viewBox="0 0 512 512" fill="none" xmlns="http://www.w3.org/2000/svg">
<path d="M18.2857 459.552C23.1354 459.552 27.7864 457.625 31.2157 454.196C34.6449 450.767 36.5714 446.116 36.5714 441.266C36.5714 359.529 103.04 293.079 184.759 293.079H261.742C343.479 293.079 409.929 359.547 409.929 441.266C409.929 446.116 411.856 450.767 415.285 454.196C418.714 457.625 423.365 459.552 428.215 459.552C433.065 459.552 437.716 457.625 441.145 454.196C444.574 450.767 446.501 446.116 446.501 441.266C446.501 354.007 385.627 280.864 304.165 261.609C316.626 250.359 326.59 236.622 333.416 221.283C340.241 205.945 343.775 189.346 343.79 172.558C343.756 140.597 331.046 109.956 308.448 87.3544C285.851 64.7533 255.211 52.0387 223.25 52C191.298 52.0436 160.667 64.7584 138.077 87.3555C115.487 109.953 102.781 140.587 102.747 172.539C102.747 207.831 118.071 239.557 142.336 261.609C60.8914 280.846 0 353.989 0 441.266C0 446.116 1.92652 450.767 5.35576 454.196C8.785 457.625 13.436 459.552 18.2857 459.552ZM223.25 88.5714C269.55 88.5714 307.218 126.24 307.218 172.539C307.218 218.839 269.55 256.507 223.25 256.507C176.969 256.507 139.319 218.839 139.319 172.539C139.319 126.24 176.969 88.5714 223.25 88.5714ZM493.714 158.642H396.69C391.841 158.642 387.19 160.569 383.76 163.998C380.331 167.427 378.405 172.078 378.405 176.928C378.405 181.778 380.331 186.429 383.76 189.858C387.19 193.287 391.841 195.214 396.69 195.214H493.714C498.564 195.214 503.215 193.287 506.644 189.858C510.074 186.429 512 181.778 512 176.928C512 172.078 510.074 167.427 506.644 163.998C503.215 160.569 498.564 158.642 493.714 158.642Z" fill="black"/>
<path d="M462.172 221.728H396.71C394.308 221.728 391.93 222.201 389.712 223.12C387.493 224.039 385.478 225.386 383.78 227.084C382.082 228.782 380.735 230.798 379.816 233.016C378.897 235.235 378.424 237.612 378.424 240.014C378.424 242.415 378.897 244.793 379.816 247.011C380.735 249.23 382.082 251.246 383.78 252.944C385.478 254.642 387.493 255.989 389.712 256.908C391.93 257.826 394.308 258.299 396.71 258.299H462.172C467.022 258.299 471.673 256.373 475.102 252.944C478.532 249.514 480.458 244.863 480.458 240.014C480.458 235.164 478.532 230.513 475.102 227.084C471.673 223.655 467.022 221.728 462.172 221.728ZM493.715 95.5931H396.691C391.842 95.5931 387.191 97.5197 383.761 100.949C380.332 104.378 378.406 109.029 378.406 113.879C378.406 118.729 380.332 123.38 383.761 126.809C387.191 130.238 391.842 132.165 396.691 132.165H493.715C498.565 132.165 503.216 130.238 506.645 126.809C510.075 123.38 512.001 118.729 512.001 113.879C512.001 109.029 510.075 104.378 506.645 100.949C503.216 97.5197 498.565 95.5931 493.715 95.5931Z" fill="black"/>
</svg>
