<svg width="512" height="512" viewBox="0 0 512 512" fill="none" xmlns="http://www.w3.org/2000/svg">
<g clip-path="url(#clip0_50_177)">
<path d="M317.155 255.966L99.3947 75.391C90.7029 68.1257 85.2584 57.729 84.2535 46.4773C83.2486 35.2255 86.765 24.036 94.0329 15.3591C101.301 6.68211 111.728 1.22484 123.031 0.182339C134.333 -0.86016 145.591 2.59707 154.337 9.79697L411.629 223.168C416.453 227.179 420.334 232.195 422.997 237.862C425.66 243.53 427.04 249.709 427.04 255.965C427.04 262.221 425.66 268.401 422.997 274.068C420.334 279.735 416.453 284.752 411.629 288.763L154.337 502.133C145.595 509.367 134.324 512.855 123 511.823C111.677 510.793 101.228 505.332 93.9479 496.641C86.6678 487.949 83.1523 476.737 84.1735 465.468C85.1948 454.198 90.6694 443.793 99.3947 436.538L317.155 255.966Z" fill="black"/>
</g>
<defs>
<clipPath id="clip0_50_177">
<rect width="512" height="512" fill="white"/>
</clipPath>
</defs>
</svg>
