<svg width="512" height="512" viewBox="0 0 512 512" fill="none" xmlns="http://www.w3.org/2000/svg">
<path d="M486.157 473.296H255.616C248.822 473.296 242.307 470.601 237.503 465.803C232.699 461.006 230 454.499 230 447.714C230 440.929 232.699 434.422 237.503 429.624C242.307 424.827 248.822 422.131 255.616 422.131H486.157C492.951 422.131 499.467 424.827 504.27 429.624C509.074 434.422 511.773 440.929 511.773 447.714C511.773 454.499 509.074 461.006 504.27 465.803C499.467 470.601 492.951 473.296 486.157 473.296ZM486.157 345.384H306.847C300.054 345.384 293.538 342.689 288.734 337.891C283.93 333.093 281.232 326.586 281.232 319.801C281.232 313.016 283.93 306.509 288.734 301.712C293.538 296.914 300.054 294.219 306.847 294.219H486.157C492.951 294.219 499.467 296.914 504.27 301.712C509.074 306.509 511.773 313.016 511.773 319.801C511.773 326.586 509.074 333.093 504.27 337.891C499.467 342.689 492.951 345.384 486.157 345.384ZM486.157 217.471H358.079C351.285 217.471 344.77 214.776 339.966 209.978C335.162 205.181 332.463 198.674 332.463 191.889C332.463 185.104 335.162 178.597 339.966 173.799C344.77 169.002 351.285 166.306 358.079 166.306H486.157C492.951 166.306 499.467 169.002 504.27 173.799C509.074 178.597 511.773 185.104 511.773 191.889C511.773 198.674 509.074 205.181 504.27 209.978C499.467 214.776 492.951 217.471 486.157 217.471ZM486.157 89.5589H409.31C402.516 89.5589 396.001 86.8636 391.197 82.066C386.393 77.2683 383.694 70.7613 383.694 63.9764C383.694 57.1915 386.393 50.6845 391.197 45.8868C396.001 41.0892 402.516 38.3939 409.31 38.3939H486.157C492.951 38.3939 499.467 41.0892 504.27 45.8868C509.074 50.6845 511.773 57.1915 511.773 63.9764C511.773 70.7613 509.074 77.2683 504.27 82.066C499.467 86.8636 492.951 89.5589 486.157 89.5589Z" fill="black"/>
<path d="M102.081 0C95.2921 0 88.7809 2.69703 83.9802 7.49777C79.1794 12.2985 76.4824 18.8097 76.4824 25.599V424.585L43.3829 391.485C38.5549 386.822 32.0885 384.242 25.3765 384.3C18.6646 384.359 12.244 387.051 7.49777 391.797C2.75151 396.543 0.0592929 402.964 0.000967709 409.676C-0.0573575 416.388 2.52288 422.854 7.18594 427.682L83.9829 504.479C86.3608 506.863 89.1857 508.755 92.2957 510.045C95.4058 511.336 98.7398 512 102.107 512C105.474 512 108.808 511.336 111.918 510.045C115.028 508.755 117.853 506.863 120.231 504.479L197.028 427.682C201.691 422.854 204.271 416.388 204.213 409.676C204.155 402.964 201.462 396.543 196.716 391.797C191.97 387.051 185.549 384.359 178.837 384.3C172.125 384.242 165.659 386.822 160.831 391.485L127.68 424.585V25.599C127.68 18.8097 124.983 12.2985 120.183 7.49777C115.382 2.69703 108.871 0 102.081 0Z" fill="black"/>
</svg>
