<svg width="512" height="512" viewBox="0 0 512 512" fill="none" xmlns="http://www.w3.org/2000/svg">
<g clip-path="url(#clip0_50_179)">
<mask id="mask0_50_179" style="mask-type:luminance" maskUnits="userSpaceOnUse" x="0" y="0" width="512" height="512">
<path d="M512 0H0V512H512V0Z" fill="white"/>
</mask>
<g mask="url(#mask0_50_179)">
<path d="M386.162 0.00211781H127.522C125.38 -0.0132586 123.239 0.0464447 121.101 0.181118C76.746 3.05712 42 41.2171 42 87.0651V368.665C42 396.544 60.922 420.087 86.601 427.117V496C86.6019 499.004 87.4482 501.947 89.0431 504.492C90.6381 507.038 92.9172 509.083 95.6198 510.394C98.3225 511.705 101.34 512.229 104.326 511.905C107.312 511.582 110.147 510.425 112.507 508.566L213.104 429.262H344.029C377.443 429.262 404.627 402.078 404.627 368.664V133.587H454.872C459.115 133.587 463.184 131.901 466.185 128.901C469.185 125.9 470.871 121.831 470.871 117.588V84.7131C470.872 38.0031 432.873 0.00211781 386.162 0.00211781ZM344.03 397.262H207.558C203.964 397.262 200.476 398.472 197.652 400.695L118.601 463.015V413.262C118.601 404.426 111.437 397.262 102.601 397.262C86.831 397.262 73.999 384.434 73.999 368.665V87.0651C73.999 58.0381 95.597 33.9011 123.171 32.1201C124.314 32.0418 125.459 32.0028 126.604 32.0031H126.959C140.338 32.0621 152.924 37.0421 162.74 46.2451C173.493 56.3231 179.415 69.9871 179.415 84.7141V117.589C179.415 126.425 186.579 133.589 195.415 133.589H372.625V368.665H372.626C372.627 384.434 359.798 397.262 344.03 397.262ZM438.874 101.588H211.417V84.7131C211.417 65.5371 204.815 46.8931 193.007 32.0021H386.162C415.229 32.0021 438.873 55.6461 438.873 84.7131L438.874 101.588Z" fill="black"/>
<path d="M322.038 182.001H134.039C127.409 182.001 122.039 187.376 122.039 194.001C122.039 200.626 127.41 206.001 134.039 206.001H322.038C328.667 206.001 334.038 200.626 334.038 194.001C334.039 187.376 328.667 182.001 322.038 182.001ZM322.037 249.002H134.039C127.41 249.002 122.039 254.377 122.039 261.002C122.039 267.627 127.41 273.002 134.039 273.002H322.038C328.667 273.002 334.038 267.627 334.038 261.002C334.039 254.377 328.666 249.002 322.037 249.002ZM322.037 316.001H134.039C127.41 316.001 122.039 321.376 122.039 328.001C122.039 334.626 127.41 340.001 134.039 340.001H322.038C328.667 340.001 334.038 334.626 334.038 328.001C334.037 321.376 328.666 316.001 322.037 316.001Z" fill="black"/>
</g>
</g>
<defs>
<clipPath id="clip0_50_179">
<rect width="512" height="512" fill="white"/>
</clipPath>
</defs>
</svg>
