<svg width="512" height="512" viewBox="0 0 512 512" fill="none" xmlns="http://www.w3.org/2000/svg">
<g clip-path="url(#clip0_52_89)">
<path d="M166 300.004H437.004C443.714 300.004 449.602 295.566 451.418 289.121L511.422 79.117C512.711 74.59 511.828 69.727 508.988 65.965C507.587 64.1126 505.776 62.61 503.697 61.5751C501.617 60.5401 499.327 60.001 497.004 60H131.37L120.647 11.75C119.907 8.41696 118.053 5.43599 115.39 3.2996C112.726 1.16322 109.414 -0.000754221 106 3.66661e-07H15C6.71 3.66661e-07 0 6.71 0 15C0 23.293 6.71 30 15 30H93.96L148.129 273.75C132.19 280.68 121 296.543 121 315.004C121 339.816 141.187 360.004 166 360.004H437.004C445.297 360.004 452.004 353.297 452.004 345.004C452.004 336.714 445.297 330.004 437.004 330.004H166C157.738 330.004 151 323.281 151 315.004C151 306.727 157.738 300.004 166 300.004ZM151 405.004C151 429.82 171.188 450.004 196.004 450.004C220.816 450.004 241.004 429.82 241.004 405.004C241.004 380.191 220.816 360.004 196.004 360.004C171.188 360.004 151 380.191 151 405.004ZM362.004 405.004C362.004 429.82 382.191 450.004 407.004 450.004C431.82 450.004 452.004 429.82 452.004 405.004C452.004 380.191 431.82 360.004 407.004 360.004C382.191 360.004 362.004 380.191 362.004 405.004Z" fill="black"/>
</g>
<defs>
<clipPath id="clip0_52_89">
<rect width="512" height="512" fill="white"/>
</clipPath>
</defs>
</svg>
