<svg width="512" height="512" viewBox="0 0 512 512" fill="none" xmlns="http://www.w3.org/2000/svg">
<g clip-path="url(#clip0_50_118)">
<path d="M58.4105 10.0216C45.0486 -3.34053 23.384 -3.34053 10.0216 10.0216C-3.34053 23.384 -3.34053 45.0486 10.0216 58.4105L207.61 255.999L10.0236 453.587C-3.33848 466.949 -3.33848 488.614 10.0236 501.976C23.386 515.338 45.0503 515.338 58.4125 501.976L255.999 304.387L453.587 501.976C466.949 515.338 488.614 515.338 501.976 501.976C515.338 488.614 515.338 466.949 501.976 453.587L304.387 255.999L501.979 58.4105C515.338 45.0486 515.338 23.384 501.979 10.0216C488.617 -3.34053 466.952 -3.34053 453.591 10.0216L255.999 207.61L58.4105 10.0216Z" fill="black"/>
</g>
<defs>
<clipPath id="clip0_50_118">
<rect width="512" height="512" fill="white"/>
</clipPath>
</defs>
</svg>
