<svg width="512" height="512" viewBox="0 0 512 512" fill="none" xmlns="http://www.w3.org/2000/svg">
<g clip-path="url(#clip0_76_71)">
<path fill-rule="evenodd" clip-rule="evenodd" d="M508.999 216.659C510.976 229.495 512 242.617 512 256C512 397.288 397.288 512 256 512C114.712 512 0 397.288 0 256C0 114.712 114.712 0 256 0C266.931 0 277.694 0.690606 288.268 2.02419C291.069 2.37049 293.749 3.37672 296.085 4.96015C298.422 6.54359 300.35 8.65902 301.71 11.1325C303.07 13.6061 303.823 16.367 303.908 19.1885C303.993 22.0099 303.408 24.8113 302.199 27.3622C297.543 37.2346 296.426 48.4088 299.037 59.0075C301.647 69.6061 307.826 78.9833 316.535 85.5635C319.247 87.6315 321.311 90.4318 322.484 93.6343C323.657 96.8368 323.89 100.308 323.155 103.638C320.722 114.656 320.931 126.094 323.767 137.015C326.603 147.937 331.985 158.031 339.472 166.473C346.959 174.915 356.338 181.464 366.843 185.584C377.347 189.704 388.678 191.279 399.908 190.178C402.838 189.894 405.794 190.339 408.511 191.473C411.228 192.608 413.623 194.396 415.482 196.679C423.178 206.223 434.266 212.421 446.426 213.979C458.587 215.537 470.879 212.333 480.732 205.038C483.203 203.211 486.104 202.053 489.154 201.675C492.204 201.297 495.299 201.712 498.142 202.881C500.984 204.049 503.477 205.931 505.379 208.345C507.281 210.759 508.528 213.623 508.999 216.659ZM369.116 297.674C361.221 297.674 353.65 300.811 348.068 306.393C342.485 311.976 339.349 319.547 339.349 327.442C339.349 335.337 342.485 342.908 348.068 348.491C353.65 354.073 361.221 357.209 369.116 357.209C377.011 357.209 384.583 354.073 390.165 348.491C395.748 342.908 398.884 335.337 398.884 327.442C398.884 319.547 395.748 311.976 390.165 306.393C384.583 300.811 377.011 297.674 369.116 297.674ZM190.512 357.209C182.617 357.209 175.045 360.345 169.463 365.928C163.88 371.51 160.744 379.082 160.744 386.977C160.744 394.872 163.88 402.443 169.463 408.026C175.045 413.608 182.617 416.744 190.512 416.744C198.406 416.744 205.978 413.608 211.56 408.026C217.143 402.443 220.279 394.872 220.279 386.977C220.279 379.082 217.143 371.51 211.56 365.928C205.978 360.345 198.406 357.209 190.512 357.209ZM196.227 100.019C191.49 100.019 186.947 101.9 183.598 105.25C180.248 108.599 178.367 113.142 178.367 117.879C178.367 122.616 180.248 127.159 183.598 130.508C186.947 133.858 191.49 135.74 196.227 135.74C200.964 135.74 205.507 133.858 208.856 130.508C212.206 127.159 214.087 122.616 214.087 117.879C214.087 113.142 212.206 108.599 208.856 105.25C205.507 101.9 200.964 100.019 196.227 100.019ZM261.953 297.674C257.217 297.674 252.674 299.556 249.324 302.906C245.975 306.255 244.093 310.798 244.093 315.535C244.093 320.272 245.975 324.815 249.324 328.164C252.674 331.514 257.217 333.395 261.953 333.395C266.69 333.395 271.233 331.514 274.583 328.164C277.932 324.815 279.814 320.272 279.814 315.535C279.814 310.798 277.932 306.255 274.583 302.906C271.233 299.556 266.69 297.674 261.953 297.674ZM125.023 226.233C120.286 226.233 115.743 228.114 112.394 231.464C109.045 234.813 107.163 239.356 107.163 244.093C107.163 248.83 109.045 253.373 112.394 256.722C115.743 260.072 120.286 261.953 125.023 261.953C129.76 261.953 134.303 260.072 137.653 256.722C141.002 253.373 142.884 248.83 142.884 244.093C142.884 239.356 141.002 234.813 137.653 231.464C134.303 228.114 129.76 226.233 125.023 226.233ZM238.14 172.651C230.245 172.651 222.673 175.787 217.091 181.37C211.508 186.952 208.372 194.524 208.372 202.419C208.372 210.313 211.508 217.885 217.091 223.467C222.673 229.05 230.245 232.186 238.14 232.186C246.034 232.186 253.606 229.05 259.188 223.467C264.771 217.885 267.907 210.313 267.907 202.419C267.907 194.524 264.771 186.952 259.188 181.37C253.606 175.787 246.034 172.651 238.14 172.651Z" fill="black"/>
</g>
<defs>
<clipPath id="clip0_76_71">
<rect width="512" height="512" fill="white"/>
</clipPath>
</defs>
</svg>
