<svg width="512" height="512" viewBox="0 0 512 512" fill="none" xmlns="http://www.w3.org/2000/svg">
<path d="M413.091 512H177.455C161.831 512 146.847 505.776 135.8 494.697C124.752 483.618 118.545 468.591 118.545 452.923V137.846C118.545 122.178 124.752 107.152 135.8 96.0725C146.847 84.9934 161.831 78.7692 177.455 78.7692H413.091C428.715 78.7692 443.698 84.9934 454.746 96.0725C465.794 107.152 472 122.178 472 137.846V452.923C472 468.591 465.794 483.618 454.746 494.697C443.698 505.776 428.715 512 413.091 512ZM177.455 118.154C172.247 118.154 167.252 120.229 163.57 123.922C159.887 127.615 157.818 132.623 157.818 137.846V452.923C157.818 458.146 159.887 463.155 163.57 466.848C167.252 470.541 172.247 472.615 177.455 472.615H413.091C418.299 472.615 423.293 470.541 426.976 466.848C430.658 463.155 432.727 458.146 432.727 452.923V137.846C432.727 132.623 430.658 127.615 426.976 123.922C423.293 120.229 418.299 118.154 413.091 118.154H177.455Z" fill="black"/>
<path d="M59.6364 315.077C54.4285 315.077 49.4339 313.002 45.7514 309.309C42.0688 305.616 40 300.607 40 295.385V59.0769C40 43.4088 46.2065 28.3823 57.2541 17.3032C68.3017 6.22416 83.2854 0 98.9091 0H295.273C300.481 0 305.475 2.07472 309.158 5.76774C312.84 9.46077 314.909 14.4696 314.909 19.6923C314.909 24.915 312.84 29.9238 309.158 33.6169C305.475 37.3099 300.481 39.3846 295.273 39.3846H98.9091C93.7012 39.3846 88.7066 41.4593 85.0241 45.1524C81.3416 48.8454 79.2727 53.8542 79.2727 59.0769V295.385C79.2727 300.607 77.2039 305.616 73.5214 309.309C69.8388 313.002 64.8443 315.077 59.6364 315.077Z" fill="black"/>
</svg>
