<svg width="512" height="512" viewBox="0 0 512 512" fill="none" xmlns="http://www.w3.org/2000/svg">
<path fill-rule="evenodd" clip-rule="evenodd" d="M470.82 230.071H482.43C498.734 230.071 512 243.338 512 259.646V350.13C512 369.439 496.289 385.147 476.984 385.147H456.32C449.641 411.01 426.109 430.169 398.195 430.169C370.281 430.169 346.75 411.01 340.062 385.147H179.938C173.258 411.01 149.727 430.169 121.812 430.169C93.8984 430.169 70.3672 411.01 63.6797 385.147H35.0156C15.7109 385.147 0 369.429 0 350.13V117.016C0 97.707 15.7109 81.999 35.0156 82H316.156C335.461 82 351.172 97.708 351.172 117.017V132.024H427.641C439.367 132.024 449.367 139.987 452.008 151.393L470.82 230.071ZM351.172 230.071H439.953L423.688 162.038H351.172V230.071ZM30 277.907V308.4H62.0938C70.4375 308.4 77.1953 301.574 77.1953 293.153C77.1953 284.733 70.4375 277.907 62.0938 277.907H30ZM91.7969 370.139C91.7969 386.674 105.258 400.154 121.812 400.154C132.898 400.154 142.594 394.111 147.789 385.147C153.203 375.829 153.141 364.311 147.789 355.132C132.484 328.699 91.7969 339.537 91.7969 370.139ZM372.211 355.132C360.688 374.985 375.094 400.154 398.195 400.154C414.805 400.154 428.211 386.606 428.211 370.139C428.211 339.612 387.578 328.599 372.211 355.132Z" fill="black"/>
</svg>
