<svg width="512" height="512" viewBox="0 0 512 512" fill="none" xmlns="http://www.w3.org/2000/svg">
<path fill-rule="evenodd" clip-rule="evenodd" d="M262.911 109.945C258.79 106.338 252.556 106.336 248.439 110.454C247.546 111.346 238.113 121.292 228.884 135.887C219.685 150.436 210.477 169.934 210.477 189.846C210.477 214.615 231.026 234.708 255.735 234.708C280.444 234.708 300.993 214.615 300.993 189.846C300.993 167.583 291.711 147.893 282.415 133.723C273.624 120.323 264.69 111.666 263.214 110.236L263.213 110.234C263.149 110.172 263.098 110.123 263.063 110.089C263.051 110.077 263.04 110.066 263.032 110.057L262.973 109.999L262.911 109.945ZM231.274 189.846C231.274 178.331 235.536 166.365 241.091 155.791C245.924 146.592 251.653 138.601 256.132 133.1C265.469 144.505 280.196 165.95 280.196 189.846C280.196 203.508 269.048 214.307 255.735 214.307C242.049 214.307 231.274 203.532 231.274 189.846Z" fill="black"/>
<path fill-rule="evenodd" clip-rule="evenodd" d="M152.741 67.3424C147.016 67.3424 142.342 72.016 142.342 77.7408V263.923C142.342 269.647 147.016 274.321 152.741 274.321H358.729C364.454 274.321 369.128 269.647 369.128 263.923V77.7408C369.128 72.016 364.454 67.3424 358.729 67.3424H152.741ZM163.139 253.524V88.1393H348.331V253.524H163.139Z" fill="black"/>
<path fill-rule="evenodd" clip-rule="evenodd" d="M168.586 0C116.91 0 75 41.91 75 93.5861V323.342C75 375.018 116.91 416.928 168.586 416.928H197.801V501.602C197.801 507.326 202.474 512 208.199 512H303.271C308.996 512 313.669 507.326 313.669 501.602V416.928H342.884C394.56 416.928 436.47 375.018 436.47 323.342V93.5861C436.47 41.91 394.56 0 342.884 0H168.586ZM95.7969 93.5861C95.7969 53.3596 128.36 20.7969 168.586 20.7969H342.884C383.11 20.7969 415.673 53.3596 415.673 93.5861V323.342C415.673 363.569 383.11 396.132 342.884 396.132H313.669V353.547H327.039C332.763 353.547 337.437 348.874 337.437 343.149C337.437 337.424 332.763 332.75 327.039 332.75H184.431C178.707 332.75 174.033 337.424 174.033 343.149C174.033 348.874 178.707 353.547 184.431 353.547H197.801V396.132H168.586C128.36 396.132 95.7969 363.569 95.7969 323.342V93.5861ZM218.598 491.203V353.547H292.872V491.203H218.598Z" fill="black"/>
</svg>
