<svg width="512" height="512" viewBox="0 0 512 512" fill="none" xmlns="http://www.w3.org/2000/svg">
<g clip-path="url(#clip0_70_260)">
<path d="M255.999 20C206.415 20 160.437 35.2934 122.463 61.4039C117.913 64.5331 111.687 63.3805 108.558 58.8297C105.428 54.2788 106.581 48.0529 111.132 44.9238C152.33 16.5965 202.237 0 255.999 0C397.383 0 511.999 114.615 511.999 255.999C511.999 397.384 397.383 511.999 255.999 511.999C114.615 511.999 0 397.384 0 255.999C0 202.241 16.5911 152.332 44.9191 111.138C48.0484 106.587 54.2743 105.435 58.8251 108.564C63.3758 111.693 64.528 117.919 61.3987 122.47C35.2888 160.439 20 206.418 20 255.999C20 386.338 125.661 491.999 255.999 491.999C386.337 491.999 491.999 386.338 491.999 255.999C491.999 125.661 386.337 20 255.999 20Z" fill="black"/>
<path d="M89.1165 74.9754C93.0247 78.8776 93.0295 85.2093 89.1272 89.1175L89.1222 89.1225C85.22 93.0307 78.8883 93.0356 74.9801 89.1333C71.0719 85.231 71.0671 78.8994 74.9693 74.9911L74.9743 74.9861C78.8766 71.0779 85.2082 71.0731 89.1165 74.9754Z" fill="black"/>
<path fill-rule="evenodd" clip-rule="evenodd" d="M205.999 255.999C205.999 228.445 228.446 206 255.999 206C283.553 206 305.999 228.445 305.999 255.999C305.999 283.553 283.553 305.999 255.999 305.999C228.445 305.999 205.999 283.553 205.999 255.999ZM255.999 226C239.491 226 225.999 239.492 225.999 255.999C225.999 272.507 239.491 285.999 255.999 285.999C272.507 285.999 285.999 272.507 285.999 255.999C285.999 239.492 272.508 226 255.999 226Z" fill="black"/>
<path fill-rule="evenodd" clip-rule="evenodd" d="M49.9998 255.999C49.9998 142.523 142.523 49.9999 255.999 49.9999C369.476 49.9999 461.999 140.761 461.999 255.999C461.999 371.237 369.475 461.999 255.999 461.999C142.523 461.999 49.9998 369.475 49.9998 255.999ZM255.999 69.9999C330.79 69.9999 395.51 114.554 425 178.472C258.063 158.25 256.025 158.491 93.1001 177.749L86.9828 178.472C116.473 114.554 181.208 69.9999 255.999 69.9999ZM70.5401 270.22C70.5401 250.962 72.954 218.149 78.4323 200.654C89.8503 198.212 101.313 196.007 112.812 194.039C101.851 219.398 97.8223 247.33 101.115 274.753C91.2491 272.307 81.0265 270.765 70.5401 270.22ZM122.411 281.638C116.472 250.515 121.577 218.029 136.916 190.271C176.338 184.688 216.131 181.882 256 181.885C295.868 181.882 335.66 184.688 375.081 190.271C390.421 218.029 395.525 250.515 389.587 281.638C343.856 300.03 308.45 338.68 294.483 386.477C269.511 393.813 242.487 393.814 217.516 386.477C203.548 338.679 168.143 300.03 122.411 281.638ZM399.185 194.039C410.685 196.006 422.147 198.211 433.566 200.653C439.044 218.148 441.458 250.962 441.458 270.22C430.972 270.765 420.749 272.307 410.883 274.753C414.175 247.33 410.146 219.398 399.185 194.039ZM308.022 434.572C308.022 353.92 365.607 296.149 438.792 290.435C425.791 359.385 374.513 415.12 308.022 434.572ZM289.715 408.333C288.585 416.058 288.158 431.168 288.158 439.207C277.707 441.042 266.961 441.999 255.999 441.999C245.037 441.999 234.291 441.042 223.84 439.207C223.84 431.168 223.414 416.058 222.283 408.333C244.426 413.195 267.573 413.195 289.715 408.333ZM73.2065 290.435C146.392 296.149 203.976 353.92 203.976 434.572C137.485 415.12 86.2072 359.386 73.2065 290.435Z" fill="black"/>
</g>
<defs>
<clipPath id="clip0_70_260">
<rect width="512" height="512" fill="white"/>
</clipPath>
</defs>
</svg>
