<svg width="512" height="512" viewBox="0 0 512 512" fill="none" xmlns="http://www.w3.org/2000/svg">
<g clip-path="url(#clip0_50_123)">
<path d="M256.003 333.159C244.151 333.159 236.25 325.258 236.25 313.406C238.225 287.727 252.052 265.999 271.805 250.197C283.657 238.345 295.509 226.493 295.509 214.641C295.509 192.913 277.731 175.136 256.003 175.136C234.275 175.136 216.497 192.913 216.497 214.641C216.497 226.493 208.596 234.394 196.744 234.394C184.893 234.394 176.992 226.493 176.992 214.641C176.992 171.185 212.547 135.63 256.003 135.63C299.459 135.63 335.015 171.185 335.015 214.641C333.039 240.32 319.212 262.048 299.459 277.851C287.608 289.702 275.756 301.554 275.756 313.406C275.756 325.258 267.855 333.159 256.003 333.159Z" fill="black"/>
<path d="M256.003 392.417C266.912 392.417 275.756 383.574 275.756 372.664C275.756 361.755 266.912 352.912 256.003 352.912C245.094 352.912 236.25 361.755 236.25 372.664C236.25 383.574 245.094 392.417 256.003 392.417Z" fill="black"/>
<path d="M26.8666 506.984C20.9408 503.033 18.9655 495.132 18.9655 487.231L36.7431 386.491C-36.3426 265.999 3.16319 107.976 123.656 36.8655C244.148 -34.2448 402.171 3.28561 475.257 123.778C548.343 244.271 508.837 402.294 388.344 475.379C309.333 522.786 208.593 524.762 129.582 477.355L48.5948 510.935C38.7184 512.91 32.7925 510.935 26.8666 506.984ZM129.582 435.874C133.532 435.874 137.483 437.849 139.458 439.824C242.173 505.009 376.493 473.404 439.702 372.664C502.911 271.925 473.282 135.63 372.542 72.4207C271.802 9.21148 137.483 34.8902 72.2982 137.605C26.8666 208.716 26.8666 301.554 72.2982 372.664C74.2735 376.615 76.2488 382.541 74.2735 386.491L62.4218 459.577L119.705 435.874H129.582Z" fill="black"/>
</g>
<defs>
<clipPath id="clip0_50_123">
<rect width="512" height="512" fill="white"/>
</clipPath>
</defs>
</svg>
