<svg width="512" height="512" viewBox="0 0 512 512" fill="none" xmlns="http://www.w3.org/2000/svg">
<g clip-path="url(#clip0_50_129)">
<mask id="mask0_50_129" style="mask-type:luminance" maskUnits="userSpaceOnUse" x="0" y="0" width="512" height="512">
<path d="M512 0H0V512H512V0Z" fill="white"/>
</mask>
<g mask="url(#mask0_50_129)">
<path d="M256 0C114.516 0 0 114.496 0 256C0 397.484 114.496 512 256 512C397.484 512 512 397.504 512 256C512 114.516 397.504 0 256 0ZM256 472C136.621 472 40 375.39 40 256C40 136.621 136.61 40 256 40C375.379 40 472 136.61 472 256C472 375.379 375.39 472 256 472ZM315.332 374C315.332 385.047 306.379 394 295.332 394H216.668C205.621 394 196.668 385.047 196.668 374C196.668 362.953 205.621 354 216.668 354H236V236.668H216.668C205.621 236.668 196.668 227.715 196.668 216.668C196.668 205.621 205.621 196.668 216.668 196.668H256C267.047 196.668 276 205.621 276 216.668V354H295.332C306.379 354 315.332 362.953 315.332 374ZM231 123.668C231 109.859 242.191 98.668 256 98.668C269.809 98.668 281 109.859 281 123.668C281 137.473 269.809 148.668 256 148.668C242.191 148.668 231 137.473 231 123.668Z" fill="black"/>
</g>
</g>
<defs>
<clipPath id="clip0_50_129">
<rect width="512" height="512" fill="white"/>
</clipPath>
</defs>
</svg>
