<svg width="512" height="512" viewBox="0 0 512 512" fill="none" xmlns="http://www.w3.org/2000/svg">
<path d="M67.2269 0C43.3366 0 24 19.3952 24 43.3359V468.664C24 480.156 28.553 491.178 36.659 499.305C44.7653 507.433 55.7608 512 67.2269 512H185.062C190.278 512 195.279 509.922 198.966 506.226C202.652 502.53 204.722 497.518 204.722 492.293C204.722 487.069 202.652 482.057 198.966 478.361C195.279 474.664 190.278 472.587 185.062 472.587H67.2269C65.0756 472.587 63.3197 470.834 63.3197 468.664V43.3359C63.3197 42.2938 63.7326 41.2954 64.4659 40.5601C65.1991 39.825 66.1924 39.413 67.2269 39.413H397.167C398.201 39.413 399.194 39.825 399.928 40.5601C400.661 41.2954 401.074 42.2938 401.074 43.3359V166.185C401.074 171.41 403.144 176.422 406.83 180.118C410.517 183.814 415.518 185.891 420.734 185.891C425.949 185.891 430.951 183.814 434.637 180.118C438.323 176.422 440.393 171.41 440.393 166.185V43.3359C440.393 19.4196 421.058 0 397.167 0H67.2269Z" fill="black"/>
<path d="M124.028 123.92C120.341 127.617 118.271 132.628 118.271 137.853C118.271 143.078 120.341 148.09 124.028 151.786C127.714 155.482 132.715 157.56 137.931 157.56H291.117C296.333 157.56 301.334 155.482 305.021 151.786C308.707 148.09 310.777 143.078 310.777 137.853C310.777 132.628 308.707 127.617 305.021 123.92C301.334 120.224 296.333 118.147 291.117 118.147H137.931C132.715 118.147 127.714 120.224 124.028 123.92Z" fill="black"/>
<path d="M124.028 206.623C120.341 210.319 118.271 215.331 118.271 220.556C118.271 225.781 120.341 230.793 124.028 234.489C127.714 238.185 132.715 240.262 137.931 240.262H196.849C202.065 240.262 207.066 238.185 210.752 234.489C214.439 230.793 216.509 225.781 216.509 220.556C216.509 215.331 214.439 210.319 210.752 206.623C207.066 202.927 202.065 200.849 196.849 200.849H137.931C132.715 200.849 127.714 202.927 124.028 206.623Z" fill="black"/>
<path d="M363.939 383.843C360.252 380.147 355.251 378.07 350.035 378.07C344.819 378.07 339.818 380.147 336.132 383.843C332.445 387.539 330.375 392.551 330.375 397.776V433.22C330.375 438.445 332.445 443.457 336.132 447.153C339.818 450.849 344.819 452.927 350.035 452.927C355.251 452.927 360.252 450.849 363.939 447.153C367.625 443.457 369.695 438.445 369.695 433.22V397.776C369.695 392.551 367.625 387.539 363.939 383.843Z" fill="black"/>
<path d="M350.032 352.502C356.811 352.502 363.31 349.802 368.102 344.998C372.893 340.194 375.584 333.68 375.584 326.888C375.584 320.097 372.893 313.582 368.102 308.778C363.31 303.974 356.811 301.274 350.032 301.274C343.254 301.274 336.754 303.974 331.963 308.778C327.171 313.582 324.481 320.097 324.481 326.888C324.481 333.68 327.171 340.194 331.963 344.998C336.754 349.802 343.254 352.502 350.032 352.502Z" fill="black"/>
<path fill-rule="evenodd" clip-rule="evenodd" d="M402.654 246.788C385.972 239.859 368.092 236.293 350.035 236.293C313.567 236.293 278.594 250.819 252.809 276.672C227.025 302.525 212.54 337.587 212.54 374.147C212.54 410.706 227.025 445.769 252.809 471.622C278.594 497.475 313.567 512 350.035 512C368.092 512 385.972 508.434 402.654 501.506C419.336 494.578 434.494 484.423 447.261 471.622C460.028 458.821 470.156 443.624 477.065 426.899C483.974 410.174 487.531 392.249 487.531 374.147C487.531 356.044 483.974 338.119 477.065 321.394C470.156 304.67 460.028 289.473 447.261 276.672C434.494 263.871 419.336 253.716 402.654 246.788ZM419.454 304.537C437.866 322.998 448.211 348.037 448.211 374.147C448.211 400.256 437.866 425.296 419.454 443.756C401.042 462.217 376.071 472.587 350.035 472.587C323.999 472.587 299.028 462.217 280.616 443.756C262.204 425.296 251.859 400.256 251.859 374.147C251.859 348.037 262.204 322.998 280.616 304.537C299.028 286.077 323.999 275.707 350.035 275.707C376.071 275.707 401.042 286.077 419.454 304.537Z" fill="black"/>
</svg>
