<svg width="512" height="512" viewBox="0 0 512 512" fill="none" xmlns="http://www.w3.org/2000/svg">
<path fill-rule="evenodd" clip-rule="evenodd" d="M256 511.999C261.015 511.999 265.698 509.492 268.48 505.319C279.889 488.206 292.919 469.957 306.71 450.644C310.853 444.842 315.065 438.944 319.322 432.951C337.638 407.167 356.628 379.864 373.776 351.982C407.75 296.743 435.999 236.936 435.999 180C435.999 80.7345 355.264 0 256 0C156.735 0 76 80.7345 76 180C76 236.936 104.249 296.743 138.223 351.982C155.371 379.864 174.361 407.167 192.677 432.951C196.934 438.944 201.146 444.842 205.289 450.644C219.08 469.957 232.11 488.206 243.519 505.319C246.301 509.492 250.984 511.999 256 511.999ZM163.777 336.266C130.251 281.755 106 228.063 106 180C106 97.303 173.303 30 256 30C338.696 30 405.999 97.303 405.999 180C405.999 228.063 381.748 281.755 348.222 336.266C331.621 363.259 313.11 389.893 294.865 415.577C290.724 421.406 286.589 427.197 282.491 432.935C273.349 445.738 264.395 458.277 256 470.37C247.603 458.276 238.65 445.737 229.507 432.935C225.41 427.196 221.274 421.405 217.134 415.577C198.889 389.893 180.378 363.259 163.777 336.266Z" fill="black"/>
<path fill-rule="evenodd" clip-rule="evenodd" d="M166 179.999C166 229.637 206.363 269.999 256 269.999C305.637 269.999 346 229.637 346 179.999C346 130.362 305.637 89.9998 256 89.9998C206.363 89.9998 166 130.362 166 179.999ZM256 239.999C222.931 239.999 196 213.068 196 179.999C196 146.931 222.931 120 256 120C289.068 120 316 146.931 316 179.999C316 213.068 289.068 239.999 256 239.999Z" fill="black"/>
</svg>
