<svg width="512" height="512" viewBox="0 0 512 512" fill="none" xmlns="http://www.w3.org/2000/svg">
<path d="M467 80.6089H45C20.187 80.6089 0 100.796 0 125.609V386.391C0 411.204 20.187 431.391 45 431.391H467C491.813 431.391 512 411.204 512 386.391V125.609C512 100.796 491.813 80.6089 467 80.6089ZM461.127 110.609L455.121 115.61L273.854 266.551C263.508 275.165 248.49 275.165 238.146 266.551L56.879 115.61L50.873 110.609H461.127ZM30 132.267L177.692 255.25L30 353.543V132.267ZM467 401.391H45C37.752 401.391 31.69 396.223 30.301 389.38L201.746 275.279L218.95 289.605C229.348 298.276 242.461 303.021 256.001 303.012C269.541 303.021 282.653 298.276 293.052 289.605L310.256 275.279L481.7 389.379C480.31 396.224 474.248 401.391 467 401.391ZM482 353.543L334.308 255.251L482 132.267V353.543Z" fill="black"/>
</svg>
