<svg width="512" height="512" viewBox="0 0 512 512" fill="none" xmlns="http://www.w3.org/2000/svg">
<path fill-rule="evenodd" clip-rule="evenodd" d="M290.271 34.6562C267.513 15.6604 234.603 15.0692 211.178 33.2345L205.39 37.7224C184.537 53.8936 170.608 77.3864 166.422 103.443C166.192 104.879 165.651 106.248 164.837 107.453L155.12 121.845C152.03 126.422 145.815 127.627 141.239 124.537C136.663 121.446 135.458 115.23 138.548 110.653L147.056 98.0508C152.466 67.8725 168.869 40.7363 193.137 21.917L198.925 17.429C229.773 -6.493 273.114 -5.71452 303.084 19.3012C315.757 29.8795 321.003 45.3402 319.258 60.0141L329.893 80.0184C333.672 87.1274 335.573 95.0845 335.416 103.134C335.258 111.184 333.048 119.06 328.994 126.016L322.963 136.363L324.715 146.893C325.078 149.076 324.707 151.318 323.66 153.268L313.163 172.807C305.279 187.484 288.963 194.692 273.455 191.712L271.493 197.291C269.832 202.01 269.606 207.116 270.844 211.963C272.081 216.811 274.726 221.183 278.445 224.529L304.366 247.849C320.988 262.804 325.371 286.276 316.88 305.684C372.813 318.179 414.613 368.11 414.613 427.816C414.613 458.525 403.54 486.674 385.182 508.447C383.282 510.7 380.486 512 377.539 512H167.394C164.206 512 161.21 510.48 159.327 507.908C157.444 505.336 156.9 502.02 157.862 498.981C166.425 471.938 170.783 443.74 170.783 415.374V300.732L141.574 282.297C127.077 273.146 115.306 260.265 107.496 245.002C99.6858 229.739 96.1236 212.656 97.1826 195.543C97.5237 190.03 102.268 185.838 107.779 186.18C113.291 186.521 117.482 191.266 117.141 196.778C116.304 210.311 119.121 223.82 125.297 235.89C131.473 247.96 140.781 258.147 152.246 265.383L170.783 277.083V270.344C170.783 260.819 172.937 251.418 177.082 242.843C181.227 234.268 187.257 226.741 194.72 220.826C199.822 216.783 203.944 211.638 206.777 205.778C209.61 199.917 211.081 193.491 211.081 186.981V179.521C211.082 163.961 214.633 148.605 221.465 134.625C228.297 120.645 238.229 108.409 250.505 98.8497C250.821 98.6043 251.15 98.378 251.492 98.1721L287.027 76.7834C302.3 67.5894 303.956 46.0794 290.271 34.6562ZM190.781 295.126C190.781 295.114 190.78 295.102 190.78 295.066V270.344C190.78 263.834 192.252 257.409 195.085 251.548C197.918 245.688 202.039 240.544 207.14 236.501C214.604 230.585 220.634 223.058 224.78 214.483C228.925 205.908 231.078 196.506 231.078 186.981V179.522C231.078 167.005 233.935 154.653 239.431 143.408C244.841 132.337 252.668 122.626 262.332 114.99L297.339 93.9191C302.022 91.0997 305.983 87.6264 309.205 83.705L312.237 89.408C314.417 93.5092 315.513 98.0993 315.423 102.743C315.332 107.387 314.056 111.931 311.718 115.944L303.87 129.408C302.695 131.423 302.262 133.786 302.645 136.087L304.429 146.809L295.547 163.342C291.032 171.747 280.521 174.844 272.169 170.23L264.313 165.889C259.48 163.218 253.397 164.971 250.726 169.805C248.056 174.639 249.809 180.723 254.642 183.394L255.095 183.645L252.629 190.652C249.658 199.098 249.254 208.235 251.468 216.91C253.683 225.586 258.416 233.411 265.072 239.399L290.992 262.718C303.571 274.036 304.551 293.424 293.178 305.953C292.713 306.464 292.303 307.023 291.954 307.619L291.661 308.119C289.933 311.069 289.831 314.697 291.392 317.739C292.952 320.781 295.958 322.815 299.362 323.131C352.787 328.102 394.616 373.079 394.616 427.816C394.616 443.167 391.331 457.742 385.423 470.884C382.544 454.435 368.193 441.933 350.922 441.933H324.106L257.002 392.331V301.604C257.002 296.081 252.525 291.604 247.003 291.604C241.482 291.604 237.005 296.081 237.005 301.604V397.375C237.005 400.547 238.51 403.531 241.061 405.417L314.87 459.975C316.59 461.247 318.673 461.933 320.812 461.933H350.922C359.223 461.933 365.953 468.664 365.953 476.967C365.953 485.269 359.223 492 350.922 492H313.576L224.98 445.359C214.66 439.927 206.02 431.778 199.993 421.792C193.966 411.807 190.78 400.365 190.78 388.701V295.388C190.78 295.173 190.781 295.15 190.781 295.126ZM270.644 492L215.666 463.057C205.593 457.755 196.74 450.48 189.61 441.709C188.098 458.689 185.126 475.515 180.723 492H270.644Z" fill="black"/>
<path d="M132.994 153.999C132.994 159.522 128.518 163.999 122.996 163.999C117.474 163.999 112.997 159.522 112.997 153.999C112.997 148.476 117.474 143.999 122.996 143.999C128.518 143.999 132.994 148.476 132.994 153.999Z" fill="black"/>
</svg>
