<svg width="512" height="512" viewBox="0 0 512 512" fill="none" xmlns="http://www.w3.org/2000/svg">
<g clip-path="url(#clip0_50_154)">
<mask id="mask0_50_154" style="mask-type:luminance" maskUnits="userSpaceOnUse" x="0" y="0" width="512" height="512">
<path d="M512 0H0V512H512V0Z" fill="white"/>
</mask>
<g mask="url(#mask0_50_154)">
<path d="M506.577 478.811L410.949 380.658C449.233 334.602 468.242 275.541 464.006 215.808C459.77 156.074 432.617 100.285 388.216 60.0897C343.815 19.8942 285.599 -1.60072 225.724 0.0930033C165.848 1.78673 108.941 26.5382 66.8847 69.1793C24.8284 111.82 0.874193 169.055 0.0234571 228.932C-0.827279 288.81 21.4913 346.701 62.3191 390.52C103.147 434.338 159.328 460.695 219.131 464.088C278.935 467.481 337.738 447.648 383.263 408.73L478.497 506.883C482.297 510.343 487.302 512.175 492.439 511.987C496.276 511.972 500.025 510.834 503.222 508.713C506.419 506.591 508.925 503.58 510.429 500.05C511.933 496.521 512.37 492.629 511.685 488.854C511 485.079 509.224 481.588 506.577 478.811ZM232.851 424.827C194.869 424.827 157.74 413.567 126.159 392.471C94.5784 371.375 69.9642 341.391 55.4291 306.309C40.8941 271.228 37.0911 232.626 44.501 195.384C51.9109 158.142 70.2009 123.933 97.0582 97.0831C123.915 70.2331 158.134 51.9481 195.386 44.5402C232.638 37.1323 271.251 40.9343 306.341 55.4654C341.432 69.9965 371.425 94.604 392.526 126.176C413.628 157.748 424.891 194.867 424.891 232.839C424.839 283.741 404.589 332.544 368.586 368.537C332.583 404.531 283.767 424.775 232.851 424.827Z" fill="black"/>
</g>
</g>
<defs>
<clipPath id="clip0_50_154">
<rect width="512" height="512" fill="white"/>
</clipPath>
</defs>
</svg>
