<svg width="512" height="512" viewBox="0 0 512 512" fill="none" xmlns="http://www.w3.org/2000/svg">
<path fill-rule="evenodd" clip-rule="evenodd" d="M60 0C26.8629 0 0 26.8629 0 60V452C0 485.137 26.8629 512 60 512H452C485.137 512 512 485.137 512 452V60C512 26.8629 485.137 0 452 0H60ZM317.942 345.572C330.999 327.859 351.786 316.211 375.375 316.211C414.871 316.211 447 348.46 447 388.105C447 427.751 414.871 460 375.375 460C335.879 460 303.75 427.751 303.75 388.105C303.75 380.716 305.188 373.723 307.26 367.008L194.749 309.176C181.742 327.387 160.603 339.377 136.625 339.377C97.1286 339.377 65 307.127 65 267.482C65 227.837 97.1286 195.588 136.625 195.588C158.062 195.588 177.108 205.282 190.244 220.31L308.734 148.743C305.624 140.697 303.75 132.031 303.75 122.895C303.75 83.2495 335.879 51 375.375 51C414.871 51 447 83.2495 447 122.895C447 162.54 414.871 194.789 375.375 194.789C353.56 194.789 334.236 184.743 321.089 169.255L202.951 240.613C206.307 248.93 208.25 257.972 208.25 267.482C208.25 274.495 206.933 281.14 205.059 287.552L317.942 345.572Z" fill="black"/>
</svg>
