<svg width="512" height="512" viewBox="0 0 512 512" fill="none" xmlns="http://www.w3.org/2000/svg">
<path d="M283.855 25.4527C278.716 14.7872 267.856 8 255.93 8C244.004 8 233.242 14.7872 228.006 25.4527L165.661 153.73L26.4277 174.285C14.7925 176.03 5.09661 184.175 1.50912 195.325C-2.07838 206.476 0.830401 218.79 9.1689 227.031L110.201 326.996L86.3485 468.266C84.4093 479.901 89.2573 491.73 98.8563 498.614C108.455 505.498 121.157 506.371 131.629 500.844L256.027 434.427L380.426 500.844C390.898 506.371 403.599 505.595 413.198 498.614C422.797 491.633 427.645 479.901 425.706 468.266L401.757 326.996L502.789 227.031C511.127 218.79 514.133 206.476 510.449 195.325C506.764 184.175 497.165 176.03 485.53 174.285L346.2 153.73L283.855 25.4527Z" fill="black"/>
</svg>
