<svg width="512" height="512" viewBox="0 0 512 512" fill="none" xmlns="http://www.w3.org/2000/svg">
<g clip-path="url(#clip0_75_71)">
<path fill-rule="evenodd" clip-rule="evenodd" d="M256 0C114.62 0 0 114.62 0 256C0 397.38 114.62 512 256 512C397.38 512 512 397.38 512 256C512 114.62 397.38 0 256 0ZM374.66 174.1C370.81 214.58 354.14 312.81 345.66 358.15C342.07 377.34 335 383.77 328.16 384.4C313.3 385.77 302.01 374.57 287.61 365.13C265.08 350.36 252.35 341.17 230.48 326.76C205.2 310.1 221.59 300.95 235.99 285.99C239.76 282.07 305.26 222.49 306.53 217.09C306.69 216.41 306.84 213.89 305.34 212.56C303.84 211.23 301.63 211.69 300.04 212.05C297.78 212.56 261.78 236.35 192.06 283.42C181.84 290.44 172.59 293.85 164.29 293.68C155.15 293.48 137.57 288.51 124.5 284.26C108.47 279.05 95.73 276.29 96.84 267.44C97.41 262.83 103.76 258.12 115.88 253.3C190.51 220.78 240.27 199.35 265.17 188.99C336.269 159.421 351.04 154.28 360.669 154.11C372.731 153.897 375.642 163.853 374.66 174.1Z" fill="black"/>
</g>
<defs>
<clipPath id="clip0_75_71">
<rect width="512" height="512" fill="white"/>
</clipPath>
</defs>
</svg>
