<svg width="512" height="512" viewBox="0 0 512 512" fill="none" xmlns="http://www.w3.org/2000/svg">
<g clip-path="url(#clip0_58_118)">
<path d="M376.846 179.025C374.606 170.298 368.118 160.349 359.973 151.825C349.966 141.353 337.166 132.829 325.966 130.327C279.733 121.481 232.242 121.481 186.009 130.327C165.646 134.865 140.133 159.418 135.158 179.025C126.843 216.867 126.843 256.064 135.158 293.905C139.173 309.789 156.598 328.815 173.849 337.949C177.672 340.052 181.763 341.628 186.009 342.633C186.449 342.708 186.847 342.936 187.135 343.277C187.422 343.618 187.58 344.049 187.58 344.495V400.349C187.579 400.967 187.764 401.57 188.11 402.082C188.456 402.593 188.948 402.989 189.521 403.218C190.095 403.446 190.724 403.498 191.327 403.365C191.93 403.232 192.479 402.921 192.904 402.473L219.464 375.273L244.366 349.673C244.542 349.48 244.759 349.329 245 349.228C245.241 349.128 245.501 349.081 245.762 349.091C272.641 349.814 299.52 347.649 325.937 342.633C346.3 338.095 371.813 313.542 376.817 293.905C385.142 256.066 385.151 216.869 376.846 179.025ZM326.693 296.727C322.917 305.355 316.418 312.508 308.191 317.091C305.616 318.209 302.936 319.066 300.191 319.651C297.078 318.691 294.111 318.08 291.464 316.916C269.455 308.325 248.974 296.242 230.809 281.135C225.412 276.504 220.329 271.518 215.595 266.211C203.935 252.786 194.149 237.843 186.504 221.789C182.78 214.225 179.638 206.342 176.438 198.516C173.529 191.389 177.835 183.971 182.257 178.676C186.575 173.728 191.901 169.76 197.878 167.04C199.977 165.973 202.384 165.679 204.677 166.211C206.97 166.743 209.003 168.067 210.417 169.949C217.792 178.312 224.294 187.406 229.82 197.091C231.566 199.912 232.162 203.296 231.486 206.544C230.809 209.792 228.911 212.656 226.184 214.545C224.729 215.535 223.275 216.727 222.024 217.833C220.79 218.756 219.727 219.889 218.882 221.178C218.148 222.38 217.703 223.736 217.582 225.14C217.461 226.543 217.667 227.955 218.184 229.265C223.798 244.713 232.322 257.571 245.064 266.618C249.375 269.677 254.021 272.234 258.911 274.24C262.101 275.98 265.693 276.853 269.326 276.771C275.668 276.015 277.762 269.033 282.184 265.396C284.217 263.739 286.73 262.781 289.351 262.666C291.971 262.551 294.559 263.284 296.729 264.756C301.442 267.665 305.98 270.924 310.518 274.153C315.007 277.206 319.328 280.498 323.464 284.015C325.396 285.428 326.775 287.47 327.364 289.79C327.953 292.11 327.716 294.563 326.693 296.727ZM284.918 226.909C284.741 226.431 284.624 225.933 284.569 225.425C284.418 223.468 284.127 221.523 283.697 219.607C282.841 215.716 280.635 212.254 277.471 209.833C275.938 208.748 274.238 207.923 272.438 207.389C270.14 206.749 267.726 206.924 265.457 206.371C264.335 206.172 263.338 205.537 262.684 204.605C262.029 203.672 261.771 202.519 261.966 201.396C262.176 200.316 262.774 199.35 263.648 198.68C264.521 198.01 265.61 197.683 266.708 197.76C280.031 198.749 289.98 205.149 292.54 219.433C292.806 220.758 292.99 222.099 293.093 223.447C293.284 224.652 293.284 225.879 293.093 227.084C292.932 227.823 292.552 228.496 292.001 229.015C291.451 229.534 290.757 229.875 290.009 229.993H289.369C288.389 230.055 287.416 229.784 286.608 229.225C285.8 228.665 285.205 227.849 284.918 226.909ZM280.671 190.865C276.187 188.759 271.427 187.3 266.533 186.531C264.38 186.182 262.228 185.978 260.075 185.687C259.512 185.659 258.96 185.516 258.455 185.265C257.95 185.015 257.502 184.663 257.139 184.232C256.776 183.801 256.506 183.299 256.345 182.759C256.184 182.218 256.137 181.65 256.206 181.091C256.21 180.523 256.334 179.963 256.569 179.446C256.805 178.93 257.146 178.468 257.571 178.092C257.997 177.716 258.496 177.434 259.038 177.264C259.58 177.094 260.151 177.04 260.715 177.105C269.257 177.435 277.625 179.619 285.238 183.505C294.531 188.176 302.115 195.658 306.911 204.887C309.61 210.292 311.417 216.098 312.264 222.08C312.423 222.859 312.539 223.645 312.613 224.436C312.758 226.182 312.817 227.898 312.962 230.08V230.895C312.941 231.758 312.824 232.617 312.613 233.455C312.356 234.294 311.846 235.034 311.153 235.574C310.46 236.114 309.618 236.427 308.741 236.472C307.864 236.516 306.995 236.29 306.251 235.823C305.507 235.356 304.925 234.671 304.584 233.862C304.26 232.688 304.113 231.472 304.148 230.255C304.212 223.757 302.924 217.318 300.366 211.345C299.786 210.031 299.135 208.749 298.417 207.505C294.245 200.351 288.078 194.569 280.671 190.865ZM328.729 244.509C325.82 244.509 324.395 242.036 324.191 239.331C323.813 234.007 323.522 228.655 322.795 223.36C321.533 214.419 318.422 205.839 313.66 198.167C308.762 190.188 302.243 183.326 294.526 178.024C286.809 172.722 278.065 169.099 268.86 167.389C264.671 166.662 260.395 166.487 256.177 166.022C253.5 165.76 249.98 165.585 249.398 162.24C249.321 161.599 249.379 160.949 249.569 160.332C249.76 159.715 250.078 159.145 250.503 158.659C250.929 158.173 251.452 157.782 252.038 157.512C252.625 157.242 253.262 157.098 253.908 157.091H257.02C269.565 157.354 281.856 160.67 292.83 166.753C303.804 172.836 313.131 181.501 320.002 192C325.508 200.56 329.247 210.134 330.998 220.16C332.104 226.473 332.511 232.931 333.006 239.331C333.1 239.957 333.062 240.597 332.892 241.208C332.723 241.818 332.427 242.386 332.024 242.875C331.62 243.363 331.118 243.762 330.551 244.043C329.983 244.325 329.362 244.483 328.729 244.509Z" fill="black"/>
<path d="M256 0C205.368 0 155.873 15.0141 113.774 43.1438C71.6752 71.2734 38.863 111.255 19.487 158.033C0.110922 204.811 -4.95873 256.284 4.91908 305.943C14.7969 355.602 39.1785 401.217 74.9808 437.019C110.783 472.822 156.398 497.203 206.057 507.081C255.716 516.959 307.189 511.889 353.967 492.513C400.745 473.137 440.727 440.325 468.856 398.226C496.986 356.127 512 306.632 512 256C512 188.105 485.029 122.99 437.019 74.9807C389.01 26.9714 323.896 0 256 0ZM403.869 300.015V300.364C396.422 330.589 362.735 362.967 331.811 369.716H331.462C306.592 374.504 281.326 376.929 256 376.96C248.611 376.96 241.164 376.727 233.775 376.291L199.622 411.811C197.745 413.741 195.335 415.067 192.701 415.623C190.066 416.178 187.327 415.936 184.83 414.928C182.334 413.92 180.194 412.192 178.684 409.963C177.173 407.735 176.36 405.107 176.349 402.415V368.698C168.326 366.314 160.693 362.776 153.687 358.196C132.218 344.553 113.6 321.891 108.247 300.364V300.015C99.0258 258.15 99.0258 214.781 108.247 172.916V172.538C115.695 142.342 149.353 109.964 180.364 103.215H180.713C230.51 93.6728 281.665 93.6728 331.462 103.215H331.811C348.509 106.851 365.993 117.964 379.724 132.305C391.36 144.378 400.436 158.778 403.869 172.655V173.033C413.074 214.86 413.074 258.188 403.869 300.015Z" fill="black"/>
</g>
<defs>
<clipPath id="clip0_58_118">
<rect width="512" height="512" fill="white"/>
</clipPath>
</defs>
</svg>
