<svg width="512" height="512" viewBox="0 0 512 512" fill="none" xmlns="http://www.w3.org/2000/svg">
<g clip-path="url(#clip0_57_90)">
<path d="M224.109 303.96L307.383 256L224.109 208.04V303.96Z" fill="black"/>
<path d="M256 0C114.637 0 0 114.637 0 256C0 397.363 114.637 512 256 512C397.363 512 512 397.363 512 256C512 114.637 397.363 0 256 0ZM415.96 256.262C415.96 256.262 415.96 308.18 409.375 333.215C405.684 346.918 394.879 357.723 381.175 361.41C356.142 368 256 368 256 368C256 368 156.121 368 130.824 361.148C117.121 357.461 106.316 346.652 102.625 332.949C96.035 308.179 96.035 256 96.035 256C96.035 256 96.035 204.086 102.625 179.05C106.313 165.348 117.383 154.277 130.825 150.59C155.858 144 256 144 256 144C256 144 356.14 144 381.176 150.852C394.879 154.539 405.684 165.348 409.375 179.051C416.227 204.086 415.961 256.261 415.961 256.261L415.96 256.262Z" fill="black"/>
</g>
<defs>
<clipPath id="clip0_57_90">
<rect width="512" height="512" fill="white"/>
</clipPath>
</defs>
</svg>
